<?xml version="1.0" encoding="utf-8"?>
<!-- Generator: Adobe Illustrator 27.3.1, SVG Export Plug-In . SVG Version: 6.00 Build 0)  -->
<svg version="1.1" id="Layer_1" xmlns="http://www.w3.org/2000/svg" xmlns:xlink="http://www.w3.org/1999/xlink" x="0px" y="0px"
	 viewBox="0 0 700 700" style="enable-background:new 0 0 700 700;" xml:space="preserve">
<path d="M350,135.2c54.6,0,104.1,21.1,140,55.1c23.8,22.6,41.6,50.9,50.9,82.6c1-0.3,2.1-0.5,3.1-0.7c3.5-0.7,7-1,10.6-1
	c15.4,0,29.3,6.2,39.4,16.3c10.1,10.1,16.3,24.1,16.3,39.4c0,15.4-6.2,29.3-16.3,39.4s-24,16.3-39.4,16.3c-2.4,0-4.9-0.2-7.5-0.5
	c-2.5-0.3-4.9-0.8-7.3-1.5l-0.7-0.2c-9.7,29.4-26.8,55.7-49.2,77c-35.9,34.1-85.4,55.1-140,55.1c-54.6,0-104.1-21.1-140-55.1
	c-22.4-21.3-39.4-47.6-49.2-77l-0.7,0.2c-2.4,0.7-4.8,1.2-7.3,1.5c-2.6,0.3-5.1,0.5-7.5,0.5c-15.4,0-29.3-6.2-39.4-16.3
	s-16.3-24-16.3-39.4c0-15.4,6.3-29.3,16.4-39.4c10.1-10.1,24-16.4,39.4-16.4c3.6,0,7.1,0.4,10.6,1c1.1,0.2,2.1,0.4,3.1,0.7
	c9.3-31.7,27.1-60,50.9-82.6c29.9-28.4,69.2-47.7,113.1-53.4l-1.3-1.8c-2.9-3.8-6.4-8.4-10.8-13.8l-0.7-0.9
	c-7.5-9.7-10.4-21.4-9.2-32.7l0-0.3c1.3-11.4,6.9-22.3,16.5-30l1.1-0.8c9.7-7.3,21.4-10.1,32.6-8.8c11.2,1.4,21.9,7,29.7,16.4
	l0.9,1.1c4.4,5.7,6.1,12.7,5.3,19.4c-0.8,6.7-4,13.1-9.6,17.6l-1.2,0.9c-5.7,4.2-12.5,5.7-19,5c-6.5-0.8-12.7-4-17.3-9.4
	c-1.5-1.5-2.4-3.6-2.4-5.9c0-4.6,3.8-8.4,8.4-8.4c2.9,0,5.4,1.5,7,3.7c1.7,1.9,4,3.1,6.4,3.3c2.6,0.3,5.2-0.3,7.4-2
	c2.2-1.7,3.4-4.1,3.7-6.7c0.3-2.6-0.4-5.3-2.1-7.5l-0.4-0.5c-4.9-5.9-11.7-9.4-18.7-10.3c-7.3-0.9-14.8,1-20.9,5.8
	c-6.2,4.9-9.8,11.8-10.6,19l0,0.2c-0.8,7.2,1.2,14.8,6.1,20.9l0.2,0.3c4.2,5.2,7.9,10,11.2,14.4c2.9,3.9,5.3,7.3,7.3,10.2
	C345,135.2,347.5,135.2,350,135.2L350,135.2z M136.3,292.4c4.5-1.2,9.1,1.5,10.2,6c1.2,4.5-1.5,9.1-6,10.2
	c-4.1,1.1-7.7,3.5-10.2,6.8c-2.4,3.2-3.9,7.2-3.9,11.5c0,4.6-3.8,8.4-8.4,8.4c-4.6,0-8.4-3.8-8.4-8.4c0-8.2,2.8-15.7,7.4-21.8
	C121.8,299,128.5,294.4,136.3,292.4L136.3,292.4z M156.3,364.4c-3-13.1-4.6-26.6-4.6-40.5c0-11.9,1.2-23.5,3.4-34.7
	c-0.8-0.2-1.5-0.4-2.3-0.5c-2.3-0.5-4.8-0.7-7.4-0.7c-10.8,0-20.5,4.4-27.6,11.4c-7.1,7-11.4,16.8-11.4,27.5
	c0,10.8,4.4,20.5,11.4,27.6c7,7,16.8,11.4,27.6,11.4c1.9,0,3.6-0.1,5.2-0.3c1.8-0.2,3.5-0.6,5.2-1L156.3,364.4z M559.5,308.6
	c-4.5-1.2-7.1-5.8-6-10.2c1.2-4.5,5.8-7.1,10.2-6c7.7,2,14.5,6.6,19.2,12.8c4.7,6,7.4,13.6,7.4,21.8c0,4.6-3.8,8.4-8.4,8.4
	c-4.6,0-8.4-3.8-8.4-8.4c0-4.4-1.5-8.4-3.9-11.5C567.2,312.1,563.6,309.7,559.5,308.6L559.5,308.6z M544.9,289.2
	c2.2,11.2,3.4,22.9,3.4,34.7c0,13.9-1.6,27.5-4.6,40.5l0.6,0.1c1.6,0.4,3.4,0.8,5.1,1c1.6,0.2,3.4,0.3,5.2,0.3
	c10.8,0,20.5-4.4,27.6-11.4c7-7,11.4-16.8,11.4-27.6c0-10.8-4.4-20.5-11.4-27.5c-7.1-7-16.8-11.4-27.6-11.4c-2.6,0-5.1,0.2-7.4,0.7
	C546.4,288.8,545.6,289,544.9,289.2L544.9,289.2z M285.4,435c-4.2-1.9-6.2-6.8-4.3-11.1c1.9-4.2,6.8-6.2,11.1-4.3
	c18.4,8.1,38.1,12.1,57.9,12.1c19.7,0,39.5-4.1,57.9-12.1c4.2-1.9,9.2,0.1,11.1,4.3c1.9,4.2-0.1,9.2-4.3,11.1
	c-20.6,9.1-42.6,13.6-64.6,13.6C328,448.6,306,444.1,285.4,435L285.4,435z M417.5,316.9c6.3,0,12,2.5,16.1,6.7
	c4.1,4.1,6.7,9.8,6.7,16.1c0,6.3-2.5,12-6.7,16.1c-4.1,4.1-9.8,6.7-16.1,6.7c-6.3,0-12-2.5-16.1-6.7c-4.1-4.1-6.7-9.8-6.7-16.1
	c0-6.3,2.5-12,6.7-16.1C405.6,319.5,411.3,316.9,417.5,316.9z M421.7,335.5c-1.1-1.1-2.6-1.7-4.2-1.7c-1.6,0-3.1,0.7-4.2,1.7
	c-1.1,1.1-1.7,2.6-1.7,4.2c0,1.6,0.7,3.1,1.7,4.2s2.6,1.7,4.2,1.7s3.1-0.7,4.2-1.7c1.1-1.1,1.7-2.6,1.7-4.2
	C423.5,338,422.8,336.5,421.7,335.5z M282.5,316.9c6.3,0,12,2.5,16.1,6.7c4.1,4.1,6.7,9.8,6.7,16.1c0,6.3-2.5,12-6.7,16.1
	c-4.1,4.1-9.8,6.7-16.1,6.7s-12-2.5-16.1-6.7c-4.1-4.1-6.7-9.8-6.7-16.1c0-6.3,2.5-12,6.7-16.1C270.5,319.5,276.2,316.9,282.5,316.9
	z M286.7,335.5c-1.1-1.1-2.6-1.7-4.2-1.7s-3.1,0.7-4.2,1.7c-1.1,1.1-1.7,2.6-1.7,4.2c0,1.6,0.7,3.1,1.7,4.2c1.1,1.1,2.6,1.7,4.2,1.7
	c1.6,0,3.1-0.7,4.2-1.7s1.7-2.6,1.7-4.2C288.4,338,287.7,336.5,286.7,335.5z M478.5,202.5c-33.9,10.3-79.7,2.8-128.5-50.5
	c-33.9-37-78,110-128.5,50.5c-32.7,31.1-53,74-53,121.4c0,47.4,20.3,90.3,53,121.4c32.8,31.2,78.3,50.5,128.5,50.5
	s95.6-19.3,128.5-50.5c32.7-31.1,53-74,53-121.4C531.4,276.5,511.2,233.5,478.5,202.5L478.5,202.5z"/>
</svg>
