<?xml version="1.0" encoding="utf-8"?>
<!-- Generator: Adobe Illustrator 27.3.1, SVG Export Plug-In . SVG Version: 6.00 Build 0)  -->
<svg version="1.1" id="Layer_1" xmlns="http://www.w3.org/2000/svg" xmlns:xlink="http://www.w3.org/1999/xlink" x="0px" y="0px"
	 viewBox="0 0 700 700" style="enable-background:new 0 0 700 700;" xml:space="preserve">
<g>
	<path d="M503.9,315l-17.3,26l-21.4-106.9l-16.3,45.9c2.5,7.2,6.8,20.7,10.2,37.1l3.1-8.8l13.6,68.1l35.2-44h110.1V315L503.9,315z"
		/>
	<path d="M285.1,125.9c6.5-3.2,13.2-5.7,20.2-7.7L298.7,33c-0.4-4.6-5.3-7.8-9.6-6.4l-8.9,3c-5.3,1.8-8.9,6.7-8.9,12.4
		c0,0.7,0.1,1.4,0.2,2.2L285.1,125.9z"/>
	<path d="M301.1,201.2c18.3,0,36.2-6.3,50.5-17.7c13.7-11,30.2-18.3,47.5-21.2l9.2-1.5c-18.3-18.4-43.7-29.5-71.3-29.5
		c-32.8,0-63.6,16-82.5,42.9c-2,2.9-4,5.9-5.8,9c14.4,11.7,32.2,18.1,50.9,18.1L301.1,201.2z"/>
	<path d="M101.9,137.4l36,18c12.4,6.2,21.6,17.1,25.7,30.1c5.9-1.1,12-1.7,18.2-1.7h1.1c6.9,0,13.7,0.7,20.4,2l21.8,4.3
		c4.1-8.8,9-17.3,14.6-25.4l-18.1-18.1c-7.4-7.4-11.9-17.2-12.7-27.6l-6.6-85.4c-0.4-4.8-5.3-8.3-9.8-7.1l-18.4,4.6
		c-4.7,1.2-8,5.4-8,10.3c0,0.9,0.1,1.7,0.3,2.6l14.2,57c2.6,10.3-2.3,20.9-11.8,25.6c-7.7,3.8-16.7,3-23.6-2.1l-22.8-17.1
		c-5-3.7-12.8-2.4-16.3,2.8L98,122.6c-1.1,1.7-1.7,3.7-1.7,5.7C96.3,132.2,98.4,135.7,101.9,137.4L101.9,137.4z"/>
	<path d="M160.4,315c27.8,0,49.6-22.1,49.6-50.4v-4.7c0-18.3,2.9-36.2,8.7-53.2l-18.6-3.7c-5.6-1.1-11.3-1.7-17-1.7h-1.1
		c-46.1,0-83.7,37.3-85.6,83.9l5.5,5.5C117.5,306.4,138.3,315,160.4,315L160.4,315z"/>
	<path d="M354.9,115.2l20.5-61.6c0.6-1.7,0.8-3.4,0.8-5.2c0-5.5-2.7-10.6-7.3-13.6l-11.2-7.5c-3.7-2.5-9.2-0.1-10,4.3l-13.7,82.3
		c1,0,1.9-0.2,2.9-0.2C343.1,113.7,349,114.3,354.9,115.2L354.9,115.2z"/>
	<path d="M435.4,95.6c1.4-1.6,2.1-3.7,2.1-5.8c0-3.5-1.9-6.6-5-8.1l-3-1.5c-6-3-13.8-0.8-17.3,4.9l-24.9,39.9c5.6,2.6,11,5.8,16,9.2
		L435.4,95.6z"/>
	<path d="M323.8,323.8c0,14.5-11.8,26.2-26.2,26.2s-26.2-11.8-26.2-26.2s11.8-26.2,26.2-26.2S323.8,309.3,323.8,323.8"/>
	<path d="M385.2,284.2l-10.7,48.3h-34.2c-4.1,19.9-21.7,35-42.9,35c-24.1,0-43.8-19.6-43.8-43.8s19.6-43.8,43.8-43.8
		c21.1,0,38.8,15.1,42.9,35h20.1l24.3-109.2L420.8,359l28.1-79c-1.2-3.4-2-5.5-2-5.6l-0.5-1.7l-10.3-58.4c-2.5-14-7.8-26.8-15.2-38
		l-18.9,3.2c-14.4,2.4-28,8.5-39.4,17.6c-17.4,13.9-39.2,21.5-61.5,21.5h-1.4c-21.5,0-42.1-7-59.1-19.8
		c-8.5,19.1-13.1,39.7-13.1,60.9v4.7c0,37.5-30.1,67.9-67.1,67.9c-23.2,0-45.3-7.8-63.1-22.3c4.5,40.5,22,78.8,50.6,109.5
		c38,41,85.6,73.6,137.5,94.5l43.8,17.6c7.6,3,16.9,2.5,23.3-2.7l4.3-3.5c52.3-42.8,90.2-102.4,106.8-167.8
		c-0.1-14-2.1-28.1-4.6-40.5l-39.9,111.3L385.2,284.2z"/>
</g>
</svg>
