<?xml version="1.0" encoding="utf-8"?>
<!-- Generator: Adobe Illustrator 27.3.1, SVG Export Plug-In . SVG Version: 6.00 Build 0)  -->
<svg version="1.1" id="Layer_1" xmlns="http://www.w3.org/2000/svg" xmlns:xlink="http://www.w3.org/1999/xlink" x="0px" y="0px"
	 viewBox="0 0 700 700" style="enable-background:new 0 0 700 700;" xml:space="preserve">
<g>
	<path d="M333,608.9h-59c-4.2,0-7.7-3.2-8.1-7.4l-0.1-0.8c-0.1-1-0.2-2.1-0.2-3.2l0.1-13.1c0.1-8,0.1-16.1,0.1-24.1
		c0-3-0.1-6.4-0.5-9.4c-0.2-1.4-0.4-2.2-0.6-2.6c-0.4-0.1-1.2-0.2-2.8-0.2l-18.4,0.4c-9.1,0.2-18.2,0.4-27.2,0.5l-3.6,0.1
		c-4.7,0.1-9.6,0.3-14.5-0.2c-13.4-1.3-23.7-7.8-29.8-19c-2.6-4.7-3.6-10.1-3.3-16.2c0.4-7.4,0.8-14.9,1.1-22.3
		c-1.5-0.5-3-1.1-4.6-1.9c-6.1-3.1-10.3-8.4-11.5-14.6c-1.2-6.1,0.5-12.4,4.7-17.5c1.1-1.4,2.3-2.6,3.6-3.7
		c-4.2-1.2-8.1-2.8-11.7-4.7c-2.9-1.5-5.6-3.5-7.9-5.8c-6.2-6-7.4-14-3.4-22l5.8-11.3c5.9-11.6,11.9-23.2,17.9-34.7
		c1.8-3.4,4.1-6.5,6.6-8.8c18.2-17,38.7-25.3,60.8-24.7c10.4,0.3,20.3,2.6,29.4,6.8c30,14.1,53.2,34.5,69,60.6
		c7.5,12.4,11.7,26.8,12.9,43.8c2.4,35.1,2.7,70.6,3.1,105c0.1,9.5,0.2,19,0.3,28.5c0.1,3.3,0.1,6.5,0,9.8v4.5
		C341.1,605.3,337.5,608.9,333,608.9L333,608.9z M281.9,592.6h43c0-2,0-4-0.1-6c-0.2-9.5-0.2-19.1-0.3-28.6
		c-0.3-34.1-0.7-69.5-3-104.1c-1-14.4-4.5-26.3-10.6-36.5c-14.2-23.6-34.5-41.3-62-54.2c-7-3.3-14.7-5.1-22.8-5.3
		c-18-0.4-34.2,6.2-49.3,20.3c-1.2,1.1-2.3,2.7-3.3,4.4c-6,11.5-11.9,23.1-17.8,34.6l-5.8,11.4c-0.9,1.7-0.7,1.9,0.3,2.8
		c1.2,1.2,2.7,2.2,4.2,3c4.9,2.6,10.6,4.3,18,5.5c1.2,0.2,2.5,0.5,3.7,0.9l1.1,0.3c3.4,0.9,5.8,3.8,6.1,7.2l0.1,0.9
		c0.2,2.6-0.8,5.2-2.8,6.9l-3.6,3.2c-1.1,1-2.4,2-3.6,3c-2.3,1.9-4.5,3.6-6.1,5.5c-0.8,0.9-1.6,2.2-1.2,3.8c0.3,1.3,1.3,2.5,2.9,3.4
		c1,0.5,2.2,0.9,3.3,1.3c1.4,0.5,2.7,1,4.1,1.6c3.3,1.5,6.5,5.3,6.4,9.8c-0.3,9-0.8,18.1-1.3,27.1c-0.2,3.1,0.3,5.5,1.4,7.5
		c3.4,6.4,9,9.8,17,10.5c4,0.4,8.2,0.3,12.5,0.2l3.8-0.1c9.1-0.2,18.1-0.4,27.2-0.5l18.4-0.4c11.6-0.2,18.1,5.1,19.8,16.6
		c0.6,4,0.7,8,0.7,11.7c0,8.1-0.1,16.1-0.1,24.2L281.9,592.6z M512.2,608.8h-131c-4.3,0-7.9-3.4-8.2-7.7l-0.1-1
		c-0.1-1-0.1-2-0.1-2.9l0.3-45.7c0.3-39.3,0.5-78.6,0.7-117.8v-5.5c0-10.1-0.1-20.4,1.5-30.9c2-13.2,5.8-30.3,17-45.5
		c7.1-9.5,16.7-16.3,28.6-20.2c9.7-3.2,17.7-7.4,24.2-13c5-4.2,6.6-12.8,3.4-18.8c-2.1-3.9-7.8-6.1-11.9-4.7
		c-3.6,1.3-7.5,3.3-11.9,6.1c-12.4,8-26,16.1-42.1,21.1c-20.9,6.5-40.8,5.5-59-3c-4.7-2.2-11.7-5.7-17.7-10.7
		c-10.6-8.8-23.1-12.9-34-15.8c-19.8-5.2-38.9-3.5-56.8,4.9c-27.5,13.2-46.8,31-58.9,54.5c-6.8,13.3-11.1,27.7-14.7,41.2l-0.8,2.9
		c-0.9,3.3-3.9,5.7-7.3,5.9c-9.8,0.7-18.8-2.9-24.9-9.8c-6.2-7.1-8.6-16.9-6.5-26.8c1.2-6,3.3-12,5.9-17.1
		c11.1-22,23.4-48.4,31.2-77.2c1.9-7.1,3.1-14.6,4.1-21.7c0.4-2.8,0.3-5.9,0.2-9.2l-0.1-1.8c-1.1-45.8,12.8-85.7,41.4-118.6
		c20.7-23.8,46.6-41.3,79.3-53.8c34.6-13.1,70-18.3,105.4-15.3c57,4.8,105,26.8,142.5,65.3c27.8,28.6,44.3,63.4,48.9,103.4
		c1.5,12.9,1.4,26.2-0.2,39.6c-0.2,1.6-0.1,3.5,0,5.6c0.1,2.1,0.2,4.2,0.1,6.4c-1.1,20.8-7.7,40.2-13.2,54.9
		c-3.9,10.4-8.6,20.6-13.2,30.5l-2.8,6.1c-1.2,2.6-2.8,4.4-4.2,5.9c-0.5,0.5-1,1.1-1.5,1.7l-0.9,1.4c-0.9,1.2-2,2.9-2.2,3.6
		c-1.2,5.2-2.6,10.6-2.6,15.6c-0.2,53.9-0.1,107.8-0.1,161.7v47.7C520.3,605.2,516.6,608.8,512.2,608.8L512.2,608.8z M389.1,592.5
		H504v-39.6c0-53.9,0-107.8,0.1-161.7c0-6.9,1.6-13.5,3-19.4c0.9-3.8,3-6.7,4.6-9.1l0.8-1.1c0.8-1.2,1.8-2.4,2.9-3.5
		c0.5-0.6,1.4-1.5,1.5-1.8l2.8-6.2c4.4-9.6,9-19.5,12.7-29.4c5.4-14.4,11.1-31.6,12.1-50c0.1-1.6,0-3.1-0.1-4.7
		c-0.1-2.5-0.2-5.3,0.1-8.3c1.5-12.1,1.5-24.2,0.2-35.8c-4.1-36.4-19-68-44.3-93.9c-34.7-35.7-79.2-56.1-132.2-60.5
		c-32.9-2.8-65.9,2.1-98.1,14.3c-30.2,11.5-54,27.6-72.9,49.3c-26.2,30.1-38.4,65.2-37.4,107.5l0.1,1.7c0.1,3.9,0.2,7.9-0.4,12.1
		c-1.1,7.6-2.4,15.6-4.5,23.5c-8.2,30.1-20.9,57.5-32.4,80.2c-2,3.9-3.5,8.5-4.5,13.2c-1,4.9-0.1,9.5,2.8,12.7c1.6,1.8,3.6,3,6,3.8
		c3.6-13.3,8-27.3,15-40.7c13.8-26.8,35.6-47,66.4-61.8c21.4-10.2,44.3-12.2,67.9-6c11.9,3.1,27.2,8.1,40.3,19
		c3.4,2.9,7.9,5.5,14.1,8.5c14.6,6.8,30.1,7.6,47.2,2.3c14.1-4.4,26.6-11.9,38.1-19.2c5.4-3.5,10.4-6,15.2-7.8
		c11.6-4.1,25.8,1.4,31.8,12.3c6.8,12.7,3.6,29.7-7.2,38.9c-8.3,7-18,12.3-29.8,16.1c-8.7,2.8-15.4,7.5-20.6,14.4
		c-7.1,9.6-11.4,21.3-14,38.2c-1.4,9.2-1.4,18.5-1.4,28.4v5.7c-0.1,39.3-0.4,78.6-0.7,117.9L389.1,592.5z"/>
	<g>
		<defs>
			<line id="SVGID_1_" x1="879.2" y1="1391.8" x2="179.2" y2="1391.8"/>
		</defs>
		<clipPath id="SVGID_00000043442223347331098000000016331140457457440186_">
			<use xlink:href="#SVGID_1_"  style="overflow:visible;"/>
		</clipPath>
	</g>
	<g>
		<defs>
			<line id="SVGID_00000136408147750333447970000015181714766952237193_" x1="995.9" y1="1391.8" x2="295.9" y2="1391.8"/>
		</defs>
		<clipPath id="SVGID_00000063609148720890799360000017076802192615869631_">
			<use xlink:href="#SVGID_00000136408147750333447970000015181714766952237193_"  style="overflow:visible;"/>
		</clipPath>
	</g>
	<g>
		<defs>
			<line id="SVGID_00000121967920709640117100000010048866699299360142_" x1="1073.1" y1="1391.8" x2="373.1" y2="1391.8"/>
		</defs>
		<clipPath id="SVGID_00000119825421023241180050000009799545366833082009_">
			<use xlink:href="#SVGID_00000121967920709640117100000010048866699299360142_"  style="overflow:visible;"/>
		</clipPath>
	</g>
	<g>
		<defs>
			<line id="SVGID_00000183207574848440691920000005138543484540112271_" x1="1091.2" y1="1391.8" x2="391.2" y2="1391.8"/>
		</defs>
		<clipPath id="SVGID_00000119084603047411206560000012722846860291343763_">
			<use xlink:href="#SVGID_00000183207574848440691920000005138543484540112271_"  style="overflow:visible;"/>
		</clipPath>
	</g>
	<g>
		<defs>
			<line id="SVGID_00000000181294142781377280000000850409078106729363_" x1="1109.6" y1="1391.8" x2="409.6" y2="1391.8"/>
		</defs>
		<clipPath id="SVGID_00000028308491608980869950000011121540396183383448_">
			<use xlink:href="#SVGID_00000000181294142781377280000000850409078106729363_"  style="overflow:visible;"/>
		</clipPath>
	</g>
	<g>
		<defs>
			<line id="SVGID_00000118365881177287891010000001851829679638558348_" x1="1123" y1="1391.8" x2="423" y2="1391.8"/>
		</defs>
		<clipPath id="SVGID_00000112607408004686762110000016583670134048661904_">
			<use xlink:href="#SVGID_00000118365881177287891010000001851829679638558348_"  style="overflow:visible;"/>
		</clipPath>
	</g>
	<g>
		<defs>
			<line id="SVGID_00000013172297929342726220000001872904076930233251_" x1="796.1" y1="1419" x2="96.1" y2="1419"/>
		</defs>
		<clipPath id="SVGID_00000147189607827873504930000010249742464829680274_">
			<use xlink:href="#SVGID_00000013172297929342726220000001872904076930233251_"  style="overflow:visible;"/>
		</clipPath>
	</g>
	<g>
		<defs>
			<line id="SVGID_00000116953433601717603560000012120482057604763319_" x1="807.9" y1="1419" x2="107.9" y2="1419"/>
		</defs>
		<clipPath id="SVGID_00000029739153070093274520000011892828736861100958_">
			<use xlink:href="#SVGID_00000116953433601717603560000012120482057604763319_"  style="overflow:visible;"/>
		</clipPath>
	</g>
	<g>
		<defs>
			<line id="SVGID_00000110440577005543901460000010690361978945908895_" x1="877.7" y1="1419" x2="177.7" y2="1419"/>
		</defs>
		<clipPath id="SVGID_00000131360323503092357410000012171429760880282512_">
			<use xlink:href="#SVGID_00000110440577005543901460000010690361978945908895_"  style="overflow:visible;"/>
		</clipPath>
	</g>
	<g>
		<defs>
			<line id="SVGID_00000030473173970001906800000012000279739105640098_" x1="910.1" y1="1419" x2="210.1" y2="1419"/>
		</defs>
		<clipPath id="SVGID_00000170968135434392496700000017819437180777349268_">
			<use xlink:href="#SVGID_00000030473173970001906800000012000279739105640098_"  style="overflow:visible;"/>
		</clipPath>
	</g>
	<g>
		<defs>
			<line id="SVGID_00000091005576079891690070000007638466698702464443_" x1="938" y1="1419" x2="238" y2="1419"/>
		</defs>
		<clipPath id="SVGID_00000019671783860593915810000007168745741334427806_">
			<use xlink:href="#SVGID_00000091005576079891690070000007638466698702464443_"  style="overflow:visible;"/>
		</clipPath>
	</g>
	<g>
		<defs>
			<line id="SVGID_00000049215423081565852920000011137932358073176225_" x1="960.7" y1="1419" x2="260.7" y2="1419"/>
		</defs>
		<clipPath id="SVGID_00000172431712097662879300000006035450421587403684_">
			<use xlink:href="#SVGID_00000049215423081565852920000011137932358073176225_"  style="overflow:visible;"/>
		</clipPath>
	</g>
	<g>
		<defs>
			<line id="SVGID_00000176737750124006494830000018432831627747855502_" x1="1047.5" y1="1419" x2="347.5" y2="1419"/>
		</defs>
		<clipPath id="SVGID_00000030451211983711191190000015053324905547698309_">
			<use xlink:href="#SVGID_00000176737750124006494830000018432831627747855502_"  style="overflow:visible;"/>
		</clipPath>
	</g>
	<g>
		<defs>
			<line id="SVGID_00000096738361596350673020000007994528003329105301_" x1="1060.9" y1="1419" x2="360.9" y2="1419"/>
		</defs>
		<clipPath id="SVGID_00000163068939203742777090000016736544508408917407_">
			<use xlink:href="#SVGID_00000096738361596350673020000007994528003329105301_"  style="overflow:visible;"/>
		</clipPath>
	</g>
	<g>
		<defs>
			<line id="SVGID_00000087392845463647352030000012182068739411069105_" x1="1088.9" y1="1419" x2="388.9" y2="1419"/>
		</defs>
		<clipPath id="SVGID_00000126307630208720897110000008358596791147023779_">
			<use xlink:href="#SVGID_00000087392845463647352030000012182068739411069105_"  style="overflow:visible;"/>
		</clipPath>
	</g>
	<g>
		<defs>
			<line id="SVGID_00000175324489134042928910000011020389052122943156_" x1="1123.5" y1="1419" x2="423.5" y2="1419"/>
		</defs>
		<clipPath id="SVGID_00000120525029974598166330000011497001826640112309_">
			<use xlink:href="#SVGID_00000175324489134042928910000011020389052122943156_"  style="overflow:visible;"/>
		</clipPath>
	</g>
</g>
</svg>
