<?xml version="1.0" encoding="UTF-8"?>
<svg id="Layer_2" data-name="Layer 2" xmlns="http://www.w3.org/2000/svg" viewBox="0 0 1034 941.25">
  <defs>
    <style>
      .cls-1 {
        fill: #fff;
      }

      .cls-2 {
        fill: none;
        stroke: #000;
        stroke-miterlimit: 10;
      }
    </style>
  </defs>
  <g id="Layer_2-2" data-name="Layer 2">
    <g id="Layer_1-2" data-name="Layer 1-2">
      <g>
        <path class="cls-2" d="m254,177.3c.9.1,1.4.2,2,.2,11.3.9,22.5,2.2,33.4,6.2,8.1,2.9,12.4,8.9,14.6,16.7,1,3.6,1.2,7.6,1.2,11.4.1,75.1,0,150.1,0,225.2,0,7.5-.1,15,0,22.6.1,8-2,15.5-6.1,22.1-2,3.3-5.1,6.4-8.4,8.4-6.1,3.8-13.3,5.1-20.4,5.8-5.8.6-11.6.9-17.5,1.4v12.7h134.5v-12.8c-1.1-.1-2-.2-2.9-.2-9.5-.6-18.9-1.5-28.1-4.1-9.8-2.7-17.5-7.9-21.6-17.5-3.6-8.2-5.1-17.2-5.1-26-.2-76.9-.1-153.9-.1-230.8v-3c.2-.2.5-.4.8-.6.9.7,2.1,1.2,2.6,2,3.8,7.4,7.5,14.9,11.1,22.4,4.6,9.4,9.1,18.8,13.6,28.2,4.5,9.3,9,18.6,13.5,27.9,4.3,9,8.7,17.9,13,26.9,2.2,4.6,4.5,9.2,6.7,13.8,4.7,9.8,9.5,19.6,14.2,29.4,2,4.1,4,8.2,6,12.3,4.5,9.4,9.1,18.8,13.6,28.2,2,4.2,4.1,8.4,6.1,12.5,4.7,9.7,9.4,19.5,14.1,29.2,2.1,4.4,4.2,8.7,6.4,13.1,4.7,9.8,9.5,19.6,14.2,29.4,2.9,6.1,5.8,12.3,8.8,18.4.3.7,1.5,1.5,2.3,1.5,4.2.2,8.5.2,12.7,0,.8,0,2-.8,2.4-1.6,2.2-4.4,4.3-8.9,6.4-13.3,2.1-4.4,4.2-8.7,6.2-13.1,4.8-10.2,9.5-20.4,14.3-30.6,2-4.2,4-8.4,5.9-12.6,4.6-9.8,9.2-19.5,13.8-29.3,2-4.2,4-8.4,6-12.6,4.7-9.9,9.3-19.9,14-29.8,2.1-4.5,4.3-9.1,6.4-13.6,4.6-9.7,9.1-19.4,13.7-29,2-4.3,4-8.6,6.1-12.9,4.6-9.8,9.2-19.5,13.8-29.3,4.3-9.1,8.6-18.2,12.8-27.3,4.5-9.7,9.1-19.4,13.6-29.1,2.2-4.8,4.7-9.5,6.7-14.4,1-2.4,2.4-2.4,4.6-1.7v2.9c0,82.9,0,165.7-.1,248.6,0,5-1,10.1-2.1,15-1.3,5.6-4.9,10-9.8,12.8-8,4.5-16.8,6.2-25.8,7-4.4.4-8.7.8-13.3,1.2v12.7h191.2v-12.8c-.9-.1-1.8-.2-2.6-.3-7.7-1-15.5-1.7-23.1-3.3-12.5-2.5-20.5-10-22.7-22.8-1-5.9-1.8-11.9-1.8-17.9-.1-77.2-.1-154.5,0-231.7,0-6.8,1.1-13.7,2.2-20.4.9-5.5,3.5-10.9,8.2-13.8,4.5-2.8,9.8-4.8,15-6,7.5-1.7,15.2-2.4,22.8-3.6.8-.1,1.9-1,2-1.6.2-3.8.1-7.7.1-11.8h-142.3c-2,0-3.5.3-4.5,2.4-4.3,9.4-8.8,18.7-13.3,28-4.4,9.2-8.7,18.3-13.1,27.5-4.5,9.4-9,18.8-13.4,28.2-4.6,9.6-9.1,19.2-13.7,28.7-4.2,8.9-8.5,17.8-12.7,26.7-4.7,9.9-9.4,19.9-14.1,29.8-2,4.3-4.1,8.5-6.2,12.8-4.7,9.8-9.4,19.7-14,29.5-3.4,7.3-6.7,14.6-10.1,21.9,0,.1-.1.2-.1.2-1,.4-2,1.1-3,1.1-.9,0-2.2-.5-2.7-1.2-1.4-2.1-2.5-4.3-3.5-6.6-4.6-9.5-9.1-19-13.6-28.5-4.3-9-8.6-17.9-12.9-26.9-4.6-9.6-9.2-19.1-13.7-28.7-2.2-4.5-4.3-9.1-6.5-13.6-4.4-9.1-8.8-18.3-13.2-27.4-4.5-9.3-8.9-18.6-13.4-27.9-4.5-9.5-9.1-19-13.6-28.5-4.3-9-8.6-17.9-12.9-26.9-2.9-6.1-5.8-12.1-8.5-18.2-.9-2-1.9-2.5-4-2.5-46.5.1-93.1.1-139.6.1h-3.1l-.4,13.1h0Zm628.1,506.1V.5H139.8v333.3h-26.2v12.5h27.3v24.6h13.8v-24.8h27.3v-12.5h-23.9V16.8h706.9v649.7h-338.7v-24.3h-13.5c0,.9-.1,1.6-.1,2.4,0,6.5-.1,13,0,19.5,0,2.1-.6,2.8-2.7,2.7-7.2-.1-14.5,0-21.7,0-1,0-2,.1-2.9.1v12.5h27.3v24.6h13.7v-20.6h355.7ZM.5,837v5.1c0,4.3,2.1,6.4,6.4,6.5,2,.1,3.9.2,5.9.6,3.2.7,4.6,2.4,4.7,5.6.2,12.6.5,25.2.5,37.8,0,8.5-.4,17.1-.4,25.7,0,3.2-1.7,4.9-4.4,5.5-2.3.5-4.8.7-7.2.8-3.4.2-5.4,2.6-5.3,6.7,0,3,2.4,5.3,5.5,5.3h49.4c.9,0,2-.4,2.7-1,3.4-2.9,3.2-7.6-.4-10.2-.8-.6-2.1-.7-3.2-.7-9.1-.3-10.4-1.5-10.4-10.6-.1-16.4-.2-32.7-.1-49.1,0-1.4.6-3.3,1.6-4.1,4.3-3.7,8.7-7.3,13.4-10.5,5.6-3.7,11.9-4.9,18.6-4.1,6.8.8,13.2,6.2,13.7,12,.3,2.9.6,5.8.6,8.7.1,13.9.1,27.8,0,41.8,0,3.7-.2,7.3-.6,11-.2,1.2-1.3,2.9-2.4,3.2-2.9.9-6,1.3-9,1.6-3.5.3-5.5,2.7-5.4,6.9,0,2.9,2.4,5.1,5.6,5.1h48.5c1,0,2.1-.5,3-1.1,2.9-1.8,2.6-4.9,1.8-7.3-.7-2.2-2.8-3.6-5.7-3.6-7.9-.1-9.2-1.6-9.2-9.3-.1-16.2-.1-32.3-.1-48.5,0-1.3.5-3.1,1.5-4,4.2-4,8.4-7.9,13-11.4,5.7-4.2,12.4-5.8,19.4-5,7.3.9,13.8,5.1,13.7,14.2-.1,7.6.3,15.2.3,22.8,0,11.7-.2,23.3-.4,35-.1,3.7-.9,4.7-4.4,5.5-2.3.5-4.6.6-7,.8-1.5.1-5.2,2.7-5.6,4-1.1,4.2,2.4,8.1,6.2,8.1,16.4-.2,32.7-.2,49.1,0,3,0,4.9-1.9,5.7-3.6,1-1.9,1-4.7-1.6-6.7-1.5-1.1-2.8-1.9-4.7-1.9-2.2,0-4.4-.5-6.7-.8-3-.3-4.1-2.2-4.2-5-.1-5-.4-10-.5-14.9-.2-15.5-.4-31-.6-46.5-.1-7-3-12.8-8.3-17.1-7.5-6.1-16.4-8.8-26-9.1-15.4-.4-28.2,5.6-39.4,15.7-1,.8-2,1.6-3.1,2.4-2.8-5.2-8.3-11.1-11.7-12.8-5.1-2.6-10.3-4.2-16-4.8-13-1.3-25,1.2-35.9,8.5-2.6,1.8-5.1,3.7-7.6,5.5-1.4-4.1-2.7-8.4-4.2-12.5-.3-.8-1.7-1.7-2.6-1.8-1.6-.1-3.3.3-5,.6-3.2.7-6.4,1.6-9.6,2.1-7.2,1-14.4,1.9-21.9,2.9h0Zm443.5,103.4c12-.9,23.6-1.9,35.2-2.7,5.2-.4,5.2-.2,5.2-5.5,0-1.3.1-3-.7-3.7-1.9-1.8-3.8-3.7-7-3.1-1.8.3-3.9-.4-5.8-.7-2.6-.4-3.9-2-3.9-4.6-.1-7.2-.4-14.5-.5-21.7,0-40.6,0-81.2-.1-121.9,0-1.3-.5-2.7-1.2-3.8-1.9-2.9-4.8-2.1-7.6-1.7-10.1,1.5-20.2,3.2-30.3,4.3-5.7.6-5.8.2-5.8,5.9,0,4,2.3,6.3,6.3,6.4,1.4,0,2.8,0,4.2.1,6.4.3,7.9,1.9,8,8.2.1,14.3.1,28.6.1,42.9,0,.7-.1,1.4-.2,2.3-8.8-5.2-17.8-8.5-27.6-9.5-23.8-2.6-44.6,7.7-56.6,27.7-4.1,6.9-5.4,15-6.3,22.8-.5,5,.5,10.2,1.3,15.2,1.6,10.4,6.6,19,13.9,26.5,5.2,5.3,11,9.8,17.8,12.5,18.3,7.3,36,5.5,52.8-4.6,2-1.2,4.1-2.4,6.4-3.8.3,4.8.1,9.3,2.4,12.5h0Zm319.3-14.9c.5.8,1.1,2.1,2,3.2,1.6,2,3.2,4.1,5.1,5.8,4.4,3.9,10,4.8,15.5,4.8,10.1,0,19-2.5,23.6-12.8.1-.3.5-.6.7-.9,2.7-4.1,2.3-10.2-1.3-12.2-1.7-1-4.1-.6-6.2-.8-1.7-.2-2.5.3-2.7,2.2-.2,2-.9,4-1.7,5.9-1.1,2.5-4,3.6-6.9,3-2.7-.5-2.5-2.7-2.6-4.6-.3-3.1-.5-6.2-.5-9.3-.1-10.2,0-20.5,0-30.8-.1-6.9,0-13.7-.7-20.6-.4-3.9-1.2-8.2-3.3-11.5-4.7-7.3-11.9-11.6-20.2-13.5-15.6-3.7-31.3-3.7-46.6,1.6-8.9,3.1-16.6,8.2-20,17.8-1.8,4.8.2,10.7,4.9,12.5,4.7,1.7,9.3,1.7,13.7-1.2,4.4-2.8,5.7-7.2,6.6-11.9.8-4.1,3.4-6.6,7.2-7.7,6.9-2.1,14-2.5,20.8-.3,6.2,2,10.6,4.7,10.8,11.6,0,2.3.3,4.7.4,7,.1,5-.1,4.8-4.7,6.5-10.5,3.9-21,7.9-31.3,12.3-5.6,2.3-10.9,5.3-16.2,8.4-5.8,3.4-11.2,7.6-14.2,13.6-7.5,15.4-.8,28.2,14.7,33.5,10.3,3.5,20.6,2.3,30.5-1.6,7.5-2.8,14.8-6.5,22.6-10h0Zm195.4-51.5h68.7c4.4,0,6.6-2.8,6-7-1.2-7.9-5.1-14.3-10.2-20.4-7-8.3-16-12.7-26.5-14.4-20.8-3.4-39,1.6-53.7,17.2-7.4,7.9-11.2,17.8-13.1,28.3-1.5,8.3-.7,16.5,1.6,24.7,2.1,7.6,6.2,14,11.2,19.8,2.1,2.4,4.6,4.7,7.2,6.6,13.6,9.7,28.6,13.6,45.2,11.2,10.2-1.5,19.8-4.7,27.5-11.8,3.3-3,6.2-6.6,8.8-10.3,2.6-3.7,1.9-7.3-1.6-8.8-1.8-.8-4-.3-6.1-.5-1.9-.2-2.8.6-3.7,2.2-2.3,4.7-5.7,8.4-10,11.4-5.4,3.8-11.5,5.1-17.8,5.4-16.6.7-25.5-6.2-30.2-20.8-2.2-6.6-2.5-13.8-3.3-20.8-.4-3.8-.1-7.8,0-12h0Zm-703.7,0h68.1c4.8,0,6.9-2.5,6.3-7.2-1.2-9-5.8-16.3-12-22.7-3.9-4-8.6-7.5-14-9.2-21.5-6.8-41.7-5.3-59.5,10.2-7.4,6.4-12.2,14.2-15.4,23.2-1.5,4.2-2.1,8.8-2.5,13.2-.7,9.5-.1,18.8,4.3,27.6,3.5,7.1,8.2,13,14.3,18.1,8.5,7.1,18.3,11.2,29.2,12.8,12.9,1.9,25.3,0,36.9-6,8.1-4.2,14.9-10,18.2-19,.7-1.9-1.2-5.8-3.1-6.4-4.6-1.3-8.2.2-10.7,4.3-1.4,2.2-2.8,4.5-4.7,6.3-5.6,5.2-12.5,7.6-20.1,8.2-15.3,1.3-26.7-5.1-31.5-19.8-.8-2.6-2-5-2.5-7.7-1.6-8.4-2.2-16.9-1.3-25.9h0Zm373.4,66.7c7.3.2,14.9-.8,22.1-3.4,11.7-4.3,20.4-11.9,24.4-24.1.3-1-.1-2.5-.5-3.6-1.4-3.6-4.7-2.5-7.4-2.8-2.6-.2-3.8.8-4.6,3.3-2.5,8.4-8.1,13.9-16.6,15.9-4.9,1.2-10,1.8-15,1.6-16-.8-23.1-8.1-28.1-20.9-4.4-11.2-4.1-23.2-2.8-35,.8-6.7,2.6-13.1,7.2-18.2,2.6-2.9,5.9-5.5,9.4-7.2,5.3-2.6,11.2-3,17.1-2.5,7,.6,9.1.6,11.5,9.5,2.2,8.2,7.4,12,15.8,11.3,5.7-.5,10.4-5.6,10.4-11.2s-3.2-9.7-7.4-12.5c-9.3-6.5-20-9.1-31.3-9.4-12.5-.3-24.3,2.2-35.3,8.7-9.9,5.9-18.4,13.4-22.6,24-7.1,18-7.2,36.1,4.1,52.9,2.8,4.2,6.4,8.1,10.4,11.2,11.4,8.7,24.5,12.5,39.2,12.4h0Zm194.1-101.5v5.3c0,2.6,2.7,5.3,5.4,5.5,1.9.1,3.8.2,5.6.4,5.9.5,7.3,1.7,7.4,7.6.2,17.1.2,34.2.2,51.3,0,3.4-.2,6.8-.5,10.1-.1,2.4-1.3,4.1-3.8,4.4-2.8.3-5.6.9-8.4.8-2.8-.1-4.5,1.9-5.7,3.5-2.2,3,1.4,8.5,5.3,8.5h53.9c.7,0,1.5-.1,2.1-.4,2.3-1.4,3.5-5,2.7-7.9-.5-1.9-3.4-3.6-6-3.6-2.2-.1-4.3-.1-6.5-.3-5.4-.6-6.6-2-6.7-7.4-.1-11.8-.3-23.7-.1-35.5.1-7,0-14.1,3.9-20.6,3.7-6.1,8.7-10.5,14.9-13.6,3.5-1.8,5-.9,6.9,2.7,1.5,2.8,3.2,5.7,5.4,7.9,3.8,3.9,8.8,3.8,13.4,1.8,3.9-1.7,8-6,7-11.3-.5-2.4-1.4-4.7-2.6-6.8-4-7.1-10.5-9.8-18.3-10.1-9.7-.4-17.9,3.5-25.3,9.3-2.4,1.9-4.6,4-6.7,5.8-1.7-5.2-3.4-10.6-4.9-15.4-13.1,2.6-25.6,5.2-38.6,8h0Zm-331.7-1.3v5.7c0,3.8,2,5.8,5.8,5.8,1.9,0,3.8.2,5.6.3,5.6.3,8.2,2.5,8.2,8,.2,20,.2,40,.2,60,0,4.3-2.2,6.3-6.6,6.7-2.7.2-5.4.2-8.2.3-3.2.1-5.1,2.6-5.1,6.6,0,3.1,2.1,5.4,5,5.4h54.4c.7,0,1.5,0,2.1-.4,2.5-1.4,3.8-5,3-7.8-.6-2-3.5-3.7-6.2-3.8-2.1,0-4.1-.2-6.2-.4-3.7-.4-5.3-2.1-5.5-5.8-.2-6.3-.5-12.6-.5-18.9-.1-20.9,0-41.7,0-62.6,0-.9.1-2-.3-2.7-2-3-4.8-3.6-8.6-2.6-5.3,1.3-10.6,2.6-15.9,3.5-6.8,1-13.8,1.7-21.2,2.7h0Zm47.9-51.8c.9-7.8-8.3-15.6-16.8-15.6-9.5,0-17.5,6.8-17.5,15.5,0,9.2,7.9,15.6,17.3,15.8,8.5.2,17.9-7.5,17-15.7Z"/>
        <path class="cls-1" d="m254,177.3v-13.2h3.1c46.5,0,93.1,0,139.6-.1,2.1,0,3.1.6,4,2.5,2.7,6.1,5.6,12.2,8.5,18.2,4.3,9,8.6,17.9,12.9,26.9,4.5,9.5,9.1,19,13.6,28.5,4.5,9.3,8.9,18.6,13.4,27.9,4.4,9.1,8.8,18.3,13.2,27.4,2.2,4.5,4.3,9,6.5,13.6,4.6,9.6,9.1,19.1,13.7,28.7,4.3,9,8.6,17.9,12.9,26.9,4.5,9.5,9.1,19,13.6,28.5,1.1,2.2,2.2,4.5,3.5,6.6.5.7,1.8,1.2,2.7,1.2,1,0,2-.7,3-1.1.1,0,.1-.2.1-.2,3.4-7.3,6.7-14.6,10.1-21.9,4.6-9.9,9.3-19.7,14-29.5,2-4.3,4.1-8.5,6.2-12.8,4.7-9.9,9.4-19.9,14.1-29.8,4.2-8.9,8.5-17.8,12.7-26.7,4.6-9.6,9.1-19.2,13.7-28.7,4.5-9.4,9-18.8,13.4-28.2,4.4-9.2,8.7-18.3,13.1-27.5,4.5-9.3,9-18.6,13.3-28,1-2.1,2.4-2.4,4.5-2.4h142.3c0,4.1.1,8-.1,11.8,0,.6-1.2,1.4-2,1.6-7.6,1.2-15.3,1.9-22.8,3.6-5.2,1.2-10.5,3.1-15,6-4.7,3-7.3,8.3-8.2,13.8-1.1,6.7-2.2,13.6-2.2,20.4-.2,77.2-.1,154.5,0,231.7,0,6,.7,12,1.8,17.9,2.3,12.8,10.2,20.3,22.7,22.8,7.6,1.5,15.4,2.2,23.1,3.3.8.1,1.6.2,2.6.3v12.8h-191.1v-12.7c4.5-.4,8.9-.7,13.3-1.2,9-.9,17.9-2.6,25.8-7,4.9-2.8,8.5-7.2,9.8-12.8,1.1-4.9,2.1-10,2.1-15,.1-82.9.1-165.7.1-248.6v-2.9c-2.2-.7-3.6-.7-4.6,1.7-2.1,4.9-4.5,9.6-6.7,14.4-4.5,9.7-9.1,19.4-13.6,29.1-4.3,9.1-8.6,18.2-12.8,27.3-4.6,9.8-9.2,19.5-13.8,29.3-2,4.3-4,8.6-6.1,12.9-4.6,9.7-9.1,19.4-13.7,29-2.1,4.5-4.3,9.1-6.4,13.6-4.7,9.9-9.3,19.9-14,29.8-2,4.2-4,8.4-6,12.6-4.6,9.8-9.2,19.5-13.8,29.3-2,4.2-4,8.4-5.9,12.6-4.8,10.2-9.5,20.4-14.3,30.6-2,4.4-4.1,8.8-6.2,13.1-2.1,4.5-4.2,9-6.4,13.3-.4.8-1.6,1.6-2.4,1.6-4.2.2-8.5.2-12.7,0-.8,0-1.9-.8-2.3-1.5-3-6.1-5.8-12.3-8.8-18.4-4.7-9.8-9.5-19.6-14.2-29.4-2.1-4.4-4.2-8.7-6.4-13-4.7-9.7-9.4-19.5-14.1-29.2-2-4.2-4.1-8.4-6.1-12.5-4.5-9.4-9.1-18.8-13.6-28.2-2-4.1-4-8.2-6-12.3-4.7-9.8-9.5-19.6-14.2-29.4-2.2-4.6-4.5-9.2-6.7-13.8-4.3-9-8.7-17.9-13-26.9-4.5-9.3-9-18.6-13.5-27.9-4.5-9.4-9.1-18.8-13.6-28.2-3.7-7.5-7.4-15-11.1-22.4-.5-.9-1.7-1.4-2.6-2-.2.2-.5.4-.8.6v3c0,77-.1,153.9.1,230.8,0,8.8,1.6,17.7,5.1,26,4.1,9.5,11.9,14.7,21.6,17.5,9.2,2.6,18.6,3.5,28.1,4.1.9.1,1.9.2,2.9.2v12.8h-134.2v-12.7c5.9-.5,11.7-.8,17.5-1.4,7.1-.8,14.2-2.1,20.4-5.8,3.3-2,6.4-5.1,8.4-8.4,4.1-6.7,6.2-14.1,6.1-22.1-.1-7.5,0-15,0-22.6v-225.2c0-3.8-.2-7.8-1.2-11.4-2.1-7.8-6.5-13.8-14.6-16.7-10.8-3.9-22-5.2-33.4-6.2-.5,0-1.1-.1-2-.2h0Z"/>
        <path class="cls-1" d="m882.1,683.4h-355.8v20.6h-13.7v-24.6h-27.3v-12.5c.9,0,1.9-.1,2.9-.1,7.2,0,14.5-.1,21.7,0,2.1,0,2.7-.6,2.7-2.7-.1-6.5,0-13,0-19.5,0-.7.1-1.5.1-2.4h13.5v24.3h338.6V16.8H158v316.8h23.9v12.5h-27.3v24.8h-13.8v-24.6h-27.3v-12.5h26.2V.5h742.3v682.9h.1Z"/>
        <path class="cls-1" d="m.5,837c7.5-1,14.7-1.9,21.8-3,3.2-.5,6.4-1.4,9.6-2.1,1.6-.3,3.3-.7,5-.6.9.1,2.3.9,2.6,1.8,1.6,4.1,2.9,8.4,4.2,12.5,2.5-1.8,5-3.8,7.6-5.5,10.9-7.3,22.9-9.8,35.9-8.5,5.7.6,11,2.2,16,4.8,3.4,1.8,8.9,7.6,11.7,12.8,1.1-.8,2.1-1.5,3.1-2.4,11.2-10,24.1-16.1,39.4-15.7,9.6.3,18.5,3,26,9.1,5.3,4.3,8.2,10.1,8.3,17.1.2,15.5.4,31,.6,46.5.1,5,.3,10,.5,14.9.1,2.8,1.2,4.7,4.2,5,2.2.2,4.5.8,6.7.8,1.9,0,3.2.8,4.7,1.9,2.6,1.9,2.6,4.8,1.6,6.7-.9,1.8-2.7,3.7-5.7,3.6-16.4-.2-32.7-.2-49.1,0-3.8,0-7.4-3.8-6.2-8.1.3-1.3,4-3.9,5.6-4,2.3-.2,4.7-.3,7-.8,3.5-.8,4.3-1.8,4.4-5.5.2-11.7.3-23.3.4-35,0-7.6-.4-15.2-.3-22.8.1-9-6.4-13.3-13.7-14.2-7.1-.8-13.7.7-19.4,5-4.6,3.4-8.8,7.4-13,11.4-.9.9-1.5,2.6-1.5,4-.1,16.2,0,32.3.1,48.5.1,7.8,1.4,9.2,9.2,9.3,2.9,0,5,1.4,5.7,3.6.8,2.4,1.1,5.5-1.8,7.3-.9.5-2,1.1-3,1.1-16.2.1-32.3.1-48.5,0-3.2,0-5.6-2.2-5.6-5.1-.1-4.2,1.9-6.5,5.4-6.9,3-.3,6.1-.7,9-1.6,1.1-.3,2.2-2,2.4-3.2.5-3.6.6-7.3.6-11,.1-13.9,0-27.8,0-41.8,0-2.9-.3-5.8-.6-8.7-.5-5.8-6.9-11.2-13.7-12-6.7-.8-13,.4-18.6,4.1-4.7,3.1-9.1,6.8-13.4,10.5-1,.9-1.6,2.7-1.6,4.1-.1,16.4,0,32.7.1,49.1.1,9.1,1.3,10.3,10.4,10.6,1.1,0,2.3.1,3.2.7,3.6,2.6,3.8,7.3.4,10.2-.7.6-1.8,1-2.7,1-16.5.1-32.9.1-49.4,0-3.1,0-5.5-2.4-5.5-5.3,0-4,1.9-6.4,5.3-6.7,2.4-.2,4.9-.3,7.2-.8,2.8-.6,4.4-2.3,4.4-5.5,0-8.5.5-17.1.4-25.7,0-12.6-.3-25.2-.5-37.8-.1-3.2-1.4-4.9-4.7-5.6-1.9-.4-3.9-.6-5.9-.6-4.3-.1-6.4-2.2-6.4-6.5.1-1.5.1-3.2.1-5h0Z"/>
        <path class="cls-1" d="m444,940.4c-2.3-3.2-2.1-7.7-2.5-12.5-2.3,1.4-4.4,2.6-6.4,3.8-16.9,10.1-34.5,11.9-52.8,4.6-6.8-2.7-12.6-7.2-17.8-12.5-7.3-7.5-12.3-16.1-13.9-26.5-.8-5-1.8-10.2-1.3-15.2.8-7.8,2.1-15.9,6.3-22.8,12-20,32.9-30.3,56.6-27.7,9.9,1.1,18.9,4.4,27.6,9.5.1-1,.2-1.7.2-2.3,0-14.3,0-28.6-.1-42.9,0-6.4-1.6-7.9-8-8.2-1.4-.1-2.8-.1-4.2-.1-4,0-6.3-2.4-6.3-6.4,0-5.8,0-5.3,5.8-5.9,10.1-1.1,20.2-2.8,30.3-4.3,2.8-.4,5.7-1.2,7.6,1.7.7,1.1,1.2,2.5,1.2,3.8.1,40.6,0,81.2.1,121.9,0,7.2.3,14.5.5,21.7,0,2.7,1.3,4.2,3.9,4.6,1.9.3,4,1,5.8.7,3.2-.5,5.1,1.4,7,3.1.7.7.6,2.4.7,3.7.1,5.3,0,5.2-5.2,5.5-11.4.8-23,1.8-35.1,2.7h0Zm-3.8-55.5v-25.7c0-1.8-.5-3-2-4-8-5.1-16.4-9-26-9.8-15.5-1.2-28.7,7.6-32.1,23.1-2,9.2-2.1,18.5-1,27.7,1.2,9.5,4.5,18,12.3,24.3,6,4.9,12.9,6.6,20.4,6.3,10.1-.4,18.5-5,25.8-11.6,1.7-1.6,2.6-3.3,2.5-5.9-.1-8.1.1-16.2.1-24.4h0Z"/>
        <path class="cls-1" d="m763.3,925.5c-7.7,3.5-15.1,7.2-22.7,10.2-9.9,3.9-20.2,5.1-30.5,1.6-15.5-5.3-22.2-18.1-14.7-33.5,3-6,8.4-10.2,14.2-13.6,5.2-3.1,10.6-6,16.2-8.4,10.3-4.4,20.8-8.4,31.3-12.3,4.6-1.7,4.7-1.5,4.7-6.5,0-2.3-.3-4.7-.4-7-.2-7-4.6-9.7-10.8-11.6-6.8-2.2-13.9-1.8-20.8.3-3.8,1.2-6.4,3.6-7.2,7.7-.9,4.7-2.2,9-6.6,11.9-4.5,2.9-9.1,3-13.7,1.2-4.7-1.8-6.6-7.6-4.9-12.5,3.5-9.6,11.1-14.7,20-17.8,15.3-5.3,31-5.3,46.6-1.6,8.3,2,15.6,6.3,20.2,13.5,2.1,3.2,2.9,7.5,3.3,11.5.7,6.8.6,13.7.7,20.6.1,10.2,0,20.5,0,30.8,0,3.1.2,6.2.5,9.3.2,1.9-.1,4.1,2.6,4.6,3,.5,5.8-.5,6.9-3,.8-1.9,1.5-3.9,1.7-5.9.2-1.9,1.1-2.4,2.7-2.2,2.1.2,4.5-.1,6.2.8,3.6,2,4.1,8.1,1.3,12.2-.2.3-.5.5-.7.9-4.6,10.3-13.5,12.8-23.6,12.8-5.6,0-11.1-1-15.5-4.8-1.9-1.7-3.5-3.8-5.1-5.8-.8-1.3-1.5-2.6-1.9-3.4h0Zm-1.6-44.7c-9.9,2.4-22.7,8.3-30.5,14.1-5.2,3.9-9.3,8.4-9.9,15.4-.6,8.3,5.2,14.7,13.3,13.6,2-.3,4.1-.6,6-1.2,7.1-2.1,13.3-6,19.3-10,.8-.5,1.6-1.5,1.6-2.3.2-9.9.1-19.6.2-29.6h0Z"/>
        <path class="cls-1" d="m958.7,874c0,4.2-.4,8.2.1,12.1.8,7,1.1,14.2,3.3,20.8,4.8,14.5,13.6,21.5,30.2,20.8,6.3-.3,12.4-1.6,17.8-5.4,4.3-3,7.7-6.7,10-11.4.8-1.7,1.8-2.5,3.7-2.2,2,.2,4.3-.2,6.1.5,3.5,1.5,4.2,5.1,1.6,8.8s-5.5,7.3-8.8,10.3c-7.7,7.1-17.3,10.3-27.5,11.8-16.6,2.4-31.6-1.6-45.2-11.2-2.6-1.9-5.1-4.2-7.2-6.6-5.1-5.8-9.1-12.2-11.2-19.8-2.3-8.2-3.1-16.4-1.6-24.7,1.9-10.5,5.7-20.4,13.1-28.3,14.7-15.7,32.9-20.6,53.7-17.2,10.5,1.7,19.4,6.1,26.5,14.4,5.1,6,9,12.5,10.2,20.4.7,4.2-1.6,7-6,7h-64.6l-4.2-.1h0Zm2.1-11.4h36.3c1.6,0,3.2.2,4.8-.1.8-.2,1.8-1.2,1.9-2,.2-1.1-.4-2.3-.6-3.5-.7-3.8-2.2-7.2-5.4-9.6-6.7-4.9-14-5.1-21.7-3.4-8.4,2-15.2,11.8-15.3,18.6Z"/>
        <path class="cls-1" d="m255,874c-1,8.9-.3,17.5,1.2,26,.5,2.6,1.6,5.1,2.5,7.7,4.8,14.7,16.1,21.1,31.5,19.8,7.6-.7,14.5-3,20.1-8.2,1.9-1.8,3.3-4.1,4.7-6.3,2.5-4.1,6.1-5.6,10.7-4.3,1.9.5,3.8,4.5,3.1,6.4-3.3,9-10.1,14.8-18.2,19-11.6,6-24,7.9-36.9,6-10.9-1.6-20.7-5.7-29.2-12.8-6-5.1-10.7-11-14.3-18.1-4.4-8.8-5-18.1-4.3-27.6.3-4.5,1-9,2.5-13.2,3.2-8.9,8-16.8,15.4-23.2,17.9-15.5,38-17,59.5-10.2,5.4,1.7,10,5.1,14,9.2,6.2,6.3,10.7,13.6,12,22.7.6,4.7-1.4,7.2-6.3,7.2h-64.6l-3.4-.1h0Zm2.3-11.7c.1.1.1.2.2.2,13.6.1,27.2.1,40.8.1.6,0,1.5-1,1.6-1.7.6-6.4-4.1-13.5-10.2-16-4.9-2-9.8-2.2-14.9-1.4-9.1,1.4-17.1,9.8-17.5,18.8h0Z"/>
        <path class="cls-1" d="m628.4,940.7c-14.7.2-27.8-3.6-39.1-12.6-4-3.1-7.6-7-10.4-11.2-11.2-16.8-11.2-34.8-4.1-52.9,4.2-10.7,12.7-18.2,22.6-24,10.9-6.5,22.7-9,35.3-8.7,11.3.3,22,2.9,31.3,9.4,4.1,2.9,7.4,6.9,7.4,12.5s-4.8,10.8-10.4,11.2c-8.5.8-13.6-3.1-15.8-11.3-2.5-9-4.5-9-11.5-9.5-5.9-.5-11.8,0-17.1,2.5-3.5,1.7-6.8,4.3-9.4,7.2-4.5,5.1-6.4,11.5-7.2,18.2-1.4,11.9-1.6,23.8,2.8,35,5,12.8,12.1,20.1,28.1,20.9,5,.2,10.1-.4,15-1.6,8.5-2,14-7.5,16.6-15.9.8-2.5,2-3.5,4.6-3.3,2.8.3,6-.9,7.4,2.8.4,1.1.8,2.5.5,3.6-4,12.2-12.7,19.8-24.4,24.1-7.3,2.8-14.9,3.7-22.2,3.6h0Z"/>
        <path class="cls-1" d="m822.5,839.2c12.9-2.8,25.4-5.4,38.6-8.2,1.6,4.9,3.2,10.2,4.9,15.4,2.1-1.8,4.3-3.9,6.7-5.8,7.4-5.8,15.6-9.7,25.3-9.3,7.7.3,14.3,3,18.3,10.1,1.2,2.1,2.2,4.5,2.6,6.8,1,5.3-3,9.6-7,11.3-4.6,2-9.5,2.1-13.4-1.8-2.2-2.2-4-5.1-5.4-7.9-1.8-3.5-3.3-4.4-6.9-2.7-6.2,3.1-11.2,7.5-14.9,13.6-3.9,6.5-3.8,13.6-3.9,20.6-.2,11.8,0,23.7.1,35.5,0,5.4,1.2,6.8,6.7,7.4,2.1.2,4.3.3,6.5.3,2.6.1,5.5,1.8,6,3.6.8,2.9-.4,6.6-2.7,7.9-.6.3-1.4.4-2.1.4h-53.9c-3.8,0-7.5-5.5-5.3-8.5,1.2-1.6,2.8-3.6,5.7-3.5,2.8.1,5.6-.5,8.4-.8,2.6-.3,3.7-2,3.8-4.4.2-3.4.5-6.8.5-10.1,0-17.1,0-34.2-.2-51.3-.1-5.9-1.5-7.1-7.4-7.6-1.9-.2-3.7-.3-5.6-.4-2.7-.1-5.4-2.9-5.4-5.5,0-1.7,0-3.6,0-5.1h0Z"/>
        <path class="cls-1" d="m490.8,837.9c7.4-.9,14.4-1.6,21.3-2.8,5.3-.9,10.6-2.2,15.9-3.5,3.8-.9,6.6-.3,8.6,2.6.5.7.3,1.8.3,2.7v62.6c0,6.3.3,12.6.5,18.9.1,3.8,1.8,5.5,5.5,5.8,2,.2,4.1.3,6.2.4,2.8.1,5.7,1.8,6.2,3.8.8,2.8-.5,6.4-3,7.8-.6.3-1.4.4-2.1.4h-54.4c-3,0-5-2.3-5-5.4,0-4,1.9-6.5,5.1-6.6,2.7-.1,5.5-.1,8.2-.3,4.3-.4,6.5-2.4,6.6-6.7,0-20,0-40-.2-60-.1-5.5-2.7-7.7-8.2-8-1.9-.1-3.8-.2-5.6-.3-3.8,0-5.8-2-5.8-5.8-.1-1.8-.1-3.7-.1-5.6h0Z"/>
        <path class="cls-1" d="m538.7,786.1c.8,8.2-8.5,15.8-17,15.7-9.4-.2-17.3-6.6-17.3-15.8s8-15.5,17.5-15.5c8.5,0,17.7,7.8,16.8,15.6Z"/>
        <path class="cls-1" d="m761.7,880.8c0,10,0,19.7-.1,29.5,0,.8-.9,1.8-1.6,2.3-6,4.1-12.2,7.9-19.3,10-2,.6-4,1-6,1.2-8.2,1.1-14-5.2-13.3-13.6.5-7,4.6-11.5,9.9-15.4,7.7-5.7,20.4-11.6,30.4-14h0Z"/>
        <path class="cls-1" d="m960.8,862.6c.1-6.8,6.9-16.6,15.2-18.5,7.7-1.8,15.1-1.5,21.7,3.4,3.2,2.4,4.6,5.8,5.4,9.6.2,1.2.8,2.4.6,3.5-.1.8-1.1,1.8-1.9,2-1.5.3-3.2.1-4.8.1h-36.2v-.1Z"/>
        <path class="cls-1" d="m257.3,862.3c.3-9,8.3-17.4,17.5-18.7,5.1-.8,10-.6,14.9,1.4,6,2.4,10.7,9.5,10.2,16-.1.6-1,1.7-1.6,1.7-13.6,0-27.2,0-40.8-.1,0-.1-.1-.3-.2-.3h0Z"/>
      </g>
    </g>
  </g>
</svg>