<?xml version="1.0" standalone="no" ?>
<!DOCTYPE svg PUBLIC "-//W3C//DTD SVG 20010904//EN"
  "http://www.w3.org/TR/2001/REC-SVG-20010904/DTD/svg10.dtd">
<svg
  version="1.0"
  xmlns="http://www.w3.org/2000/svg"
  width="1853.000000pt"
  height="1853.000000pt"
  viewBox="0 0 1853.000000 1853.000000"
  preserveAspectRatio="xMidYMid meet"
>
<metadata>
Created by potrace 1.16, written by Peter Selinger 2001-2019
</metadata>
<g
    transform="translate(0.000000,1853.000000) scale(0.100000,-0.100000)"
    fill="#000000"
    stroke="none"
  >
<path
      d="M890 10740 l0 -6820 3120 0 3120 0 0 -300 0 -300 80 0 80 0 0 300 0
300 1760 0 1760 0 0 -300 0 -300 80 0 80 0 0 300 0 300 1680 0 1680 0 0 -300
0 -300 80 0 80 0 0 300 0 300 1580 0 1580 0 0 6820 0 6820 -1225 0 -1225 0 0
-6050 0 -6050 -2675 0 -2675 0 0 -185 0 -185 -480 0 -480 0 0 185 0 185 -1030
0 -1030 0 0 710 0 710 3680 0 3680 0 0 3560 0 3560 -410 0 -410 0 0 -2615 0
-2615 33 0 c78 0 77 1 77 -131 l0 -119 -3095 0 -3095 0 0 960 0 960 -80 0 -80
0 0 -836 c0 -827 0 -836 20 -841 19 -5 20 -14 20 -124 l0 -119 -1095 0 -1095
0 0 119 0 120 33 3 32 3 3 838 2 837 -35 0 -35 0 0 1780 0 1780 -205 0 -205 0
0 -1780 0 -1780 -710 0 -710 0 0 275 0 275 -170 0 -170 0 0 220 0 220 -45 0
-45 0 0 115 0 115 45 0 45 0 0 215 0 215 170 0 170 0 0 2735 0 2735 -1130 0
-1130 0 0 -6820z"
    />
<path
      d="M10810 9634 l0 -806 25 6 c14 4 50 17 80 31 l55 24 0 775 0 776 -80
0 -80 0 0 -806z"
    />
</g>
</svg>
