<?xml version="1.0" encoding="utf-8"?>
<!-- Generator: Adobe Illustrator 27.3.1, SVG Export Plug-In . SVG Version: 6.00 Build 0)  -->
<svg version="1.1" id="Layer_1" xmlns="http://www.w3.org/2000/svg" xmlns:xlink="http://www.w3.org/1999/xlink" x="0px" y="0px"
	 viewBox="0 0 700 700" style="enable-background:new 0 0 700 700;" xml:space="preserve">
<g>
	<path d="M217.5,244.2c0,38.7-24.1,70-53.8,70s-53.8-31.3-53.8-70s24.1-70,53.8-70S217.5,205.6,217.5,244.2"/>
	<path d="M335.4,126.3c0,38.7-24.1,70-53.8,70c-29.7,0-53.8-31.3-53.8-70s24.1-70,53.8-70C311.3,56.3,335.4,87.7,335.4,126.3"/>
	<path d="M594.8,244.2c0,38.7-24.1,70-53.8,70c-29.7,0-53.8-31.3-53.8-70s24.1-70,53.8-70C570.7,174.2,594.8,205.6,594.8,244.2"/>
	<path d="M476.9,126.3c0,38.7-24.1,70-53.8,70s-53.8-31.3-53.8-70s24.1-70,53.8-70S476.9,87.7,476.9,126.3"/>
	<path d="M342.8,467.5c89.1,0,161.4,94.4,161.4-21.7c0-116.2-72.2-210.4-161.4-210.4s-161.4,94.2-161.4,210.4
		C181.4,561.9,253.7,467.5,342.8,467.5z"/>
</g>
</svg>
