<?xml version="1.0" encoding="utf-8"?>
<!-- Generator: Adobe Illustrator 27.3.1, SVG Export Plug-In . SVG Version: 6.00 Build 0)  -->
<svg version="1.1" id="Layer_1" xmlns="http://www.w3.org/2000/svg" xmlns:xlink="http://www.w3.org/1999/xlink" x="0px" y="0px"
	 viewBox="0 0 700 700" style="enable-background:new 0 0 700 700;" xml:space="preserve">
<g>
	<path d="M611.8,258.7c-0.1-0.2-0.3-0.4-0.5-0.6c-12.1-6.8-24.9-10.3-38.1-10.3c-17.4,0-34.8,6.1-51.9,18.2c-1.4,1-3,1.5-4.7,1.5
		c-2.7,0-5.1-1.3-6.7-3.4c-2.6-3.7-1.7-8.8,2-11.4c20.5-14.4,39.3-21.5,57.7-21.5c9,0,18.1,1.7,27.9,5.1c0.5,0.2,1,0,1.3-0.4
		c0.3-0.4,7.7-10,3.7-33.3c-1.8-8.4-5-15.2-9.5-20.2c-9.2-11.6-18.5-14.1-24.7-14.1c-3.8,0-6.3,1-6.4,1c-0.2,0.1-0.4,0.2-0.5,0.5
		c-8.9,14-19.2,23.4-38.1,34.7c-1.3,0.8-2.7,1.2-4.2,1.2c-2.9,0-5.5-1.5-7-4c-2.3-3.9-1-8.9,2.8-11.2c22.8-13.6,31.8-22.6,37.3-37
		c2.8-10.1-0.6-23.8-7.9-31.8l-1.5-1.8c-8.3-10.2-23.6-29.1-62.4-39c-5.4-1.7-10.9-2.6-16.4-2.6c-15.8,0-26.1,7.1-26.6,7.4
		c-0.4,0.3-0.6,0.8-0.4,1.3c1.5,4.5,6.2,18.3,1.5,33.7c-1.1,3.4-4.2,5.7-7.8,5.7c-0.8,0-1.6-0.1-2.4-0.4c-4.3-1.3-6.7-5.9-5.4-10.2
		c3.2-10.2,2.5-19.2-2.1-27.6c-6-10.9-14.2-18.2-25.2-22.4c-10.5-4.5-27.1-5.4-33.8-5.7c-43.1,0.2-73.9,3-112.8,16.9
		c-5,1.6-8.9,4.9-10.9,9.2c-2.5,5.1-2.4,11.4,0.2,18.3c0,0.1,0.1,0.4,0.3,0.8c3,8.8,6,16.7,8.8,23.5c0.8,2,0.8,4.2,0,6.2
		c-0.8,2-2.4,3.6-4.4,4.4c-1,0.4-2,0.6-3.1,0.6c-3.3,0-6.2-2-7.5-5c-2.3-5.6-9.6-23.8-9.7-24c-0.1-0.4-3.5-8.8-14.4-8.8
		c-8.2,0-18.3,4.9-30.1,14.4c-15.7,12.1-23.7,23.1-23.8,32.7c-0.1,6.7,3.9,10.1,4.2,10.3c3.2,2.1,20.8,15.4,28.1,23.6
		c3.1,3.4,3,8.5-0.2,11.5c-1.5,1.5-3.5,2.3-5.6,2.3c-2.2,0-4.3-0.9-5.9-2.5c-18.2-19-33.1-28.3-45.7-28.3c-1.8,0-3.5,0.2-5.1,0.6
		c-4.9,1.1-12.7,6.7-17.5,14.1C90.2,203,84.8,220,83.2,249.2c-0.9,17.4,3.8,34.5,9.1,41.9c7.4,10.4,14.9,16.3,17.8,18.3
		c0,0,2.3,1.5,3.2,0.8c7.4-5.8,16-8.9,26.4-8.9c6.3,0,13.3,1.1,21,3.1c2,0.6,3.7,1.9,4.8,3.8c1.1,1.9,1.3,4.2,0.7,6.3
		c-1,3.4-4.2,5.9-7.8,5.9c-0.8,0-1.5-0.1-2.3-0.3c-5.4-1.6-10.4-2.2-14.9-2.4c-4.4-0.1-12.6,0.3-16.2,4.5c-0.2,0.2-0.3,0.4-0.4,0.6
		c-0.1,0.2-0.9,20.1,27.3,30.2c23.7,8.5,36,8.8,87.5,8.8c7.6,0,15.9-0.1,26.3-0.3c2.6-0.1,6.3-1.4,8.6-4.1c1.8-2.1,2.6-4.7,2.2-7.4
		c0-4.4,0.6-8.4,2.2-12.6c6.2-17.3,18.6-28.6,40.3-36.6c0.9-0.3,1.9-0.5,2.8-0.5c3.4,0,6.5,2.1,7.6,5.3c0.8,2,0.7,4.2-0.2,6.2
		c-0.9,2-2.5,3.5-4.6,4.2c-16.6,6.2-26.8,14.9-30.4,26.1c-6,18.9,7.9,39.6,8.1,39.8c41.5,40.6,122,41.8,126.1,30.5
		c3.4-8.4,5.8-21.7-2.5-37.4c-12.9-24.7-56.6-26.3-57-26.3c-4.5-0.1-8-3.9-7.9-8.4c0.1-4.4,3.8-7.9,8.3-7.9
		c2.2,0.1,53.7,1.8,71.1,35c9.4,18.1,8.1,34.1,5.3,44.5c-0.7,2.8-0.2,5.6,1.3,7.5c1,1.2,2.8,2.7,6,2.7c0,0,28.5,0.2,51.9-4.7
		c3.2-0.6,6.2,1.7,6.7,4.8c0.5,3.2-1.7,6.2-4.9,6.6c-34.2,5.4-64.2,8-90.3,8c-31.5,0-57.2-3.9-77.6-11.8
		c0.3,14.4,5.2,26.9,14.1,37.2c0.1,0.1,0.1,0.1,0.2,0.2c3,3.1,7.4,7.5,11.5,11.2c3.1,2.8,17.8,12.2,21.6,14.5
		c7.4,4.3,40.9,24.9,44.1,27c14.8,9.5,19.1,19.8,19.6,20.4c1.6,2.1,2.4,8.3,2.4,8.3c1.3,5.5,6.3,9.7,12.3,9.6
		c7,0,12.6-5.7,12.6-12.6c0,0,0.2-14.2-5.3-23.9c-0.9-1.8-12.5-20.8-25.9-31.2c-4.1-3.1-13.7-10.2-13.7-10.2l-0.1,0
		c-1.1-0.7-1.4-2.2-0.7-3.3c0.7-1.2,2.2-1.5,3.4-0.8c0,0,28.3,19.9,46,14.9c26.1-7.3,60.2-24.4,60.2-63c0-5.7-0.6-11.1-1.7-16.2
		c3.6-1.9,7.2-4.1,10.8-6.6c4.2-3.4,5.5-7.5,5.8-10.5c0.4-4.2-0.8-8.6-3.1-11.5l-17.2-22.1l-0.2-0.2c-3.6-4.5-8.3-5.5-11.6-5.5
		c-2.8,0-5,0.7-6.2,1.1c-6,3-12.4,5.5-18.9,7.4c-4.3,1.2-8.9-1.4-10.1-5.6c-0.6-2.1-0.4-4.3,0.7-6.2c1.1-1.9,2.8-3.3,4.9-3.9
		c14.8-4.3,41.5-16.1,54.1-47.1c1.2-3.1,4.2-5.1,7.5-5.1c1.1,0,2.1,0.2,3.1,0.6c4.2,1.7,6.2,6.5,4.5,10.6
		c-4.1,9.9-9.6,18.9-16.6,26.9c-3.2,5.2-2.8,10.5,1.3,16.4l11.2,14.6c0.2,0.2,0.4,0.4,0.6,0.4c0.2,0.1,4.6,1.3,10.8,1.3
		c8.4,0,20.4-2.3,29.3-13.2c21.8-26.1,22.9-48.7,23.7-65.2c0.1-1.6,0.2-3.2,0.2-4.9C623,267,615.3,260.9,611.8,258.7L611.8,258.7z
		 M277.5,247.9c-10.5,10.4-22.1,18-34.4,22.7c-0.1,0.1-0.3,0.1-0.4,0.2c-5.7,3.1-7.7,7.3-6.6,14.2l4.7,26.6c0.4,2.1,0,4.3-1.2,6.1
		c-1.2,1.8-3.1,3-5.2,3.4c-4.4,0.9-8.7-2.1-9.6-6.4l-5.1-28.7c-1.6-6-7.4-9.2-11.1-9.7c-0.2-0.1-0.3-0.1-0.5-0.1
		c-40.5-1.5-72.9-27.6-73.2-27.9c-1.7-1.4-2.7-3.3-2.9-5.5c-0.2-2.2,0.4-4.3,1.8-6c1.6-1.9,3.9-3,6.3-3c1.9,0,3.7,0.6,5.1,1.8
		c1.2,1,30.4,24.4,65.5,24.4c20.7,0,39.3-8,55.4-23.9c3.1-3.1,8.5-3,11.5,0.1c1.5,1.5,2.4,3.6,2.3,5.8
		C279.9,244.3,279,246.4,277.5,247.9L277.5,247.9z M288.2,191.3c-25.5,0-43.7,15.7-44.4,16.4c-1.5,1.3-3.4,2-5.4,2
		c-2.3,0-4.6-1-6.1-2.8c-1.4-1.6-2.2-3.7-2-5.9c0.1-2.2,1.1-4.2,2.8-5.6c11.1-9.8,31.6-20.3,55.4-20.3c17.2,0,33.6,5.4,48.8,16.2
		c1.8,1.3,3,3.1,3.3,5.3c0.4,2.1-0.1,4.3-1.4,6.1c-1.5,2.2-4,3.4-6.7,3.4c-1.7,0-3.3-0.5-4.7-1.5
		C315.2,195.9,301.9,191.3,288.2,191.3L288.2,191.3z M476.7,306.8c-1.4,1.7-3.4,2.7-5.5,2.9c-35.1,3.1-61.2-4.7-77.1-22.8
		c-2.5-2.8-4.8-6-6.7-9.4c0-0.1-0.1-0.2-0.2-0.2c-2.1-2.1-5-3.3-8.6-3.4c-1.3,0-2.6,0-4.1,0.2c-0.2,0-10.3,2.2-20.3,1.9
		c-22.4-0.7-36.9-11.3-37.5-11.7c-3.6-2.7-4.4-7.8-1.7-11.4c1.6-2.2,4.2-3.4,6.8-3.3c1.6,0.1,3.2,0.6,4.5,1.6
		c0.5,0.3,11.3,7.5,28.3,8.5c8.2,0.5,16.3-2.1,17.2-2.5c6.3-2.6,6-9.6,5.7-12.3c-1.3-15.7,1.5-28.3,1.6-28.8c1-4.3,5.4-7.1,9.7-6.1
		c4.4,1,7.1,5.3,6.1,9.7c-0.1,0.4-7.5,35.2,11.3,56.7c12.3,14,33.7,19.9,63.4,17.3c4.6-0.4,8.4,3,8.8,7.4
		C478.7,303,478.1,305.1,476.7,306.8L476.7,306.8z M470.3,180.7c-14.6,14-21.8,36.2-18.3,56.7c0.7,4-2,7.8-6,8.5
		c-0.4,0.1-0.8,0.1-1.2,0.1c-3.6,0-6.8-2.5-7.2-6.1c-2.7-21.9,4.4-42,4.5-42.2c0.5-1.1,0.5-2.1,0.2-3c-0.4-1-1.4-1.6-2.2-1.9
		c-21.9-2.4-61.2-10.7-79.5-39.3c-2.8-4.1-10.2-2-22.1-2c-53.6-0.1-61.2-34.5-61.5-36c-0.4-1.9,0-3.9,1.1-5.5
		c1.1-1.6,2.7-2.8,4.6-3.1c0.5-0.1,1-0.2,1.5-0.2c3.4,0,6.4,2.4,7.2,5.8c0.2,1,6.1,24.3,47.3,24.3c2,0,4.2-0.1,6.3-0.2
		c4.7-0.6,7.4-3.1,8.1-7.6c0.7-15.9,12.6-27.7,19.6-32.1c1.2-0.8,2.5-1.2,3.9-1.2c2.5,0,4.8,1.3,6.2,3.4c1.1,1.6,1.4,3.6,1,5.5
		c-0.4,1.9-1.6,3.6-3.2,4.6c-0.8,0.5-18.5,12.4-11,29.9c13.5,31.6,59.6,38.2,78.8,39.7c2.4-0.2,5.2-1.6,7.5-4c1.6-1.9,3-3.4,4.4-4.7
		c18.6-17.9,19.7-35.3,19.8-36.1c0.2-4,3.7-7.2,7.7-7c4,0.2,7.1,3.6,7,7.6C494.5,135.7,493.4,158.6,470.3,180.7L470.3,180.7z"/>
</g>
</svg>
