<?xml version="1.0" encoding="utf-8"?>
<!-- Generator: Adobe Illustrator 27.3.1, SVG Export Plug-In . SVG Version: 6.00 Build 0)  -->
<svg version="1.1" id="Layer_1" xmlns="http://www.w3.org/2000/svg" xmlns:xlink="http://www.w3.org/1999/xlink" x="0px" y="0px"
	 viewBox="0 0 700 700" style="enable-background:new 0 0 700 700;" xml:space="preserve">
<g>
	<path d="M111.5,280.8l22.4,24.1l-16.7,4.9c-3.1,0.9-5.5,3.5-6.1,6.7l-6,30.2c-0.6,2.9,0.3,5.8,2.4,7.9l43.6,43.6l17.4,18.9
		c1.7,1.8,4,2.8,6.4,2.8h17.5v24.7c0,2.4,1,4.6,2.6,6.2c-1.6,3.4-2.6,7.3-2.6,11.3c0,14.5,11.8,26.2,26.2,26.2s26.2-11.8,26.2-26.2
		c0-4-0.9-7.9-2.6-11.3c1.6-1.6,2.6-3.8,2.6-6.2v-13.9l3.6-3.6H525v17.5c0,2.4,1,4.6,2.6,6.2c-1.6,3.4-2.6,7.3-2.6,11.3
		c0,14.5,11.8,26.2,26.2,26.2s26.2-11.8,26.2-26.2c0-4-0.9-7.9-2.6-11.3c1.6-1.6,2.6-3.8,2.6-6.2V401c0-4-0.9-7.9-2.6-11.3
		c1.6-1.6,2.6-3.8,2.6-6.2V354C588,348,595,336.7,595,323.8c0-19.3-15.7-35-35-35h-4.7c3-5.2,4.7-11.1,4.7-17.5
		c0-19.3-15.7-35-35-35h-52.5V87.5h70c4.8,0,8.8-3.9,8.8-8.8s-3.9-8.8-8.8-8.8H385c-4.8,0-8.8,3.9-8.8,8.8s3.9,8.8,8.8,8.8h8.8v28.7
		l-20.3,6.8c-3.6,1.2-6,4.5-6,8.3v50.3c0,15.7,12.8,28.4,28.4,28.4h13.1c15.7,0,28.4-12.8,28.4-28.4v-50.3c0-3.8-2.4-7.1-6-8.3
		l-20.3-6.8V87.5H455v148.8H332.5c-19.3,0-35,15.7-35,35c0,6.4,1.7,12.3,4.7,17.5h-28.4c-0.6-0.4-1.3-0.8-2-1l-16.6-17.9
		c1.9,0.2,3.8,0.2,5.7,0.2c7.3,0,14.7-1.2,21.8-3.6c3.3-1.1,5.7-4.2,5.9-7.7c1.5-22.6-8.3-44.4-26.3-58.2l-5.5-4.2
		c-18-13.8-41.5-17.8-63-10.5c-3.3,1.1-5.7,4.2-5.9,7.7c-0.1,1.1-0.1,2.2-0.1,3.3l-18.1-19.6c-11.9-12.7-31.5-14.6-45.6-4.5
		c-8.2,5.8-13.4,14.9-14.4,24.9c-1,9.9,2.4,19.8,9.2,27.2l4.8,5.2l-11.4,11.4C101.4,252.2,101.1,269.6,111.5,280.8L111.5,280.8z
		 M409.1,192.5h-13.1c-6,0-10.9-4.9-10.9-10.9v-15.3h35v15.3C420,187.6,415.1,192.5,409.1,192.5L409.1,192.5z M420,148.8h-35v-11.2
		l17.5-5.8l17.5,5.8V148.8z M127.3,325.2l19.9-5.9l36.8,39.6l-5.4,19.2l-18.4,4.5l-37-37L127.3,325.2z M174,397.2l13.8-3.3
		c3.1-0.7,5.5-3.1,6.4-6.1L198,374l9.7,10.4l-12.1,18.1h-16.7L174,397.2L174,397.2z M218.8,471c-4.8,0-8.8-3.9-8.8-8.8
		s3.9-8.8,8.8-8.8s8.8,3.9,8.8,8.8S223.6,471,218.8,471z M245,409.7c-2.3,0-4.5,0.9-6.2,2.6l-8.8,8.8c-1.6,1.6-2.6,3.9-2.6,6.2v8.8
		H210v-23.6l13.4-20.1l327.8,0c4.8,0,8.8,3.9,8.8,8.8v35h-17.5v-17.5c0-4.8-3.9-8.8-8.8-8.8L245,409.7L245,409.7z M455,280v8.8
		h-52.5V280H455z M402.5,262.5v-8.8H455v8.8H402.5z M516.3,288.7h-43.8V280h41.6c1.2,0,2.2,1,2.2,2.2L516.3,288.7z M385,288.7h-8.8
		v-6.6c0-1.2,1-2.2,2.2-2.2h6.6V288.7z M516.3,306.2v8.8h-140v-8.8H516.3z M376.3,332.5h140v8.8h-140V332.5z M516.3,358.7v16h-140
		v-16H516.3z M551.3,471c-4.8,0-8.8-3.9-8.8-8.8s3.9-8.8,8.8-8.8s8.8,3.9,8.8,8.8S556.1,471,551.3,471z M560,374.7h-26.2v-16H560
		V374.7z M577.5,323.7c0,9.6-7.9,17.5-17.5,17.5h-26.2v-35H560C569.7,306.2,577.5,314.1,577.5,323.7z M525,253.7
		c9.6,0,17.5,7.9,17.5,17.5c0,6.5-3.5,12.1-8.8,15.1v-4.2c0-10.9-8.8-19.7-19.7-19.7h-41.6v-8.8L525,253.7z M315,271.2
		c0-9.6,7.9-17.5,17.5-17.5H385v8.8h-6.6c-10.9,0-19.7,8.8-19.7,19.7v6.6h-26.2C322.9,288.7,315,280.9,315,271.2L315,271.2z
		 M205.3,200.8c14.3-3,29.2,0.4,40.9,9.4l5.5,4.2c11.7,9,18.7,22.6,19.5,37.1c-14.2,3-29.1-0.4-40.9-9.4l-2.5-1.9l-16.1-17.4
		C208,216.1,205.8,208.6,205.3,200.8L205.3,200.8z M127.1,199.3c0.5-5,3.1-9.5,7.1-12.3c7-5,16.8-4.1,22.6,2.2l40.7,44
		c4.3,7,9.9,13.4,16.6,18.5l1.8,1.4l40.7,44.1l-9.8,12.3c-3,3.8-2.4,9.3,1.4,12.3c1.6,1.3,3.5,1.9,5.4,1.9c2.6,0,5.1-1.1,6.9-3.3
		l11.3-14.2h86.9v35H248.9L131.8,212.9c0,0-0.1-0.1-0.1-0.1C128.3,209.2,126.6,204.3,127.1,199.3L127.1,199.3z M124.6,253.8
		l10.8-10.8l103.1,113c1.7,1.8,4,2.9,6.5,2.9h113.8v16H222.6l-98.2-105.8C120.3,264.6,120.4,257.9,124.6,253.8L124.6,253.8z"/>
</g>
</svg>
