<?xml version="1.0" standalone="no"?>
<!DOCTYPE svg PUBLIC "-//W3C//DTD SVG 20010904//EN"
 "http://www.w3.org/TR/2001/REC-SVG-20010904/DTD/svg10.dtd">
<svg version="1.0" xmlns="http://www.w3.org/2000/svg"
 width="1853.000000pt" height="1853.000000pt" viewBox="0 0 1853.000000 1853.000000"
 preserveAspectRatio="xMidYMid meet">

<g transform="translate(0.000000,1853.000000) scale(0.100000,-0.100000)"
fill="#000000" stroke="none">   
<path d="M3150 14605 l0 -2955 -215 0 -215 0 0 -110 0 -110 225 0 225 0 0
-220 0 -220 110 0 110 0 0 220 0 220 225 0 225 0 0 110 0 110 -200 0 -200 0 0
2810 0 2810 5740 0 5740 0 0 -5760 0 -5760 -2750 0 -2750 0 0 220 0 220 -110
0 -110 0 0 -220 0 -220 -225 0 -225 0 0 -110 0 -110 225 0 225 0 0 -220 0
-220 110 0 110 0 0 185 0 185 2890 0 2890 0 0 6050 0 6050 -6025 0 -6025 0 0
-2955z"/>
<path d="M5000 14545 c0 -84 3 -117 13 -119 6 -2 76 -11 155 -20 267 -31 469
-100 544 -184 17 -20 44 -64 60 -98 62 -132 59 4 56 -2534 l-3 -2315 -22 -78
c-86 -302 -255 -405 -710 -433 l-113 -7 0 -113 0 -114 1095 0 1095 0 0 114 0
114 -87 7 c-325 25 -527 86 -647 196 -101 92 -172 271 -196 491 -6 64 -10 814
-10 2198 0 2056 0 2100 19 2100 20 0 -51 158 1661 -3703 l674 -1518 129 3 129
3 1146 2663 1146 2662 33 0 33 0 -3 -2302 c-3 -2188 -4 -2307 -21 -2373 -39
-151 -112 -252 -222 -308 -112 -57 -286 -95 -506 -113 l-88 -6 0 -114 0 -114
1555 0 1555 0 0 114 0 114 -82 7 c-278 22 -466 79 -567 170 -82 75 -139 231
-161 444 -14 144 -14 4284 1 4440 19 203 72 357 147 422 50 44 179 103 282
128 91 22 288 51 345 51 l35 0 0 120 0 120 -1181 -2 -1180 -3 -914 -2095 -914
-2095 -38 -3 -38 -3 -921 2098 -920 2098 -1182 3 -1182 2 0 -115z"/>
<path d="M8255 3894 c-89 -24 -293 -55 -413 -62 l-117 -7 -3 -74 c-3 -72 -2
-75 29 -108 31 -31 37 -33 98 -33 37 0 83 -5 103 -11 69 -18 68 -14 68 -504
l0 -436 -30 21 c-16 12 -72 41 -123 65 -293 139 -631 121 -889 -47 -293 -193
-442 -501 -425 -882 6 -143 21 -215 67 -336 81 -208 272 -413 472 -504 124
-57 195 -71 353 -70 121 1 152 4 228 28 103 31 216 86 307 150 l65 46 7 -66
c7 -74 27 -162 37 -168 3 -2 38 2 78 10 123 23 243 36 408 42 l160 7 3 74 c3
71 2 75 -28 106 -29 30 -38 33 -112 38 -101 7 -130 25 -140 88 -3 24 -7 618
-7 1320 l-1 1275 -28 27 c-32 31 -83 35 -167 11z m-578 -1325 c62 -14 234 -98
296 -144 l47 -35 0 -500 0 -500 -56 -56 c-234 -233 -555 -255 -758 -52 -115
115 -170 276 -183 533 -9 206 17 384 77 513 57 121 195 228 327 252 57 11 182
5 250 -11z"/>
<path d="M9225 3886 c-123 -57 -188 -193 -151 -319 58 -199 297 -271 450 -136
59 52 87 106 93 181 11 115 -47 221 -148 272 -72 35 -171 36 -244 2z"/>
<path d="M14695 2809 c-112 -34 -302 -76 -427 -94 l-38 -6 0 -73 c0 -66 2 -74
28 -98 23 -21 42 -27 121 -36 80 -8 97 -13 120 -36 l26 -26 0 -583 c0 -320 -3
-594 -8 -609 -10 -39 -54 -58 -150 -65 -70 -5 -86 -9 -109 -31 -24 -22 -28
-34 -28 -77 0 -43 4 -56 28 -78 l28 -27 464 0 464 0 28 27 c24 22 28 35 28 78
0 43 -4 55 -27 77 -24 22 -40 26 -116 31 -48 3 -99 12 -114 19 -54 26 -54 26
-50 513 4 490 6 510 65 618 54 100 199 224 272 234 l39 6 35 -73 c67 -136 119
-180 216 -180 159 0 247 165 172 321 -28 57 -103 133 -158 160 -183 88 -435
13 -623 -185 -29 -32 -54 -56 -55 -54 -1 2 -10 43 -19 91 -21 106 -54 197 -70
196 -7 -1 -70 -19 -142 -40z"/>
<path d="M1390 2825 c-71 -23 -234 -53 -370 -70 -68 -8 -126 -15 -127 -15 -2
0 -3 -33 -3 -73 0 -69 2 -75 33 -104 28 -27 41 -31 104 -36 80 -6 107 -17 125
-50 15 -26 25 -873 13 -1095 -9 -172 -14 -179 -137 -195 -112 -15 -138 -36
-138 -112 0 -43 4 -56 28 -78 l28 -27 429 0 429 0 28 27 c24 22 28 35 28 78 0
72 -31 100 -120 110 -72 7 -124 28 -136 53 -5 9 -10 249 -12 533 l-3 516 90
85 c150 143 266 200 402 200 96 0 163 -27 218 -87 66 -72 66 -69 66 -670 0
-297 -4 -553 -8 -568 -10 -36 -51 -54 -143 -63 -94 -9 -124 -36 -124 -109 0
-43 4 -56 28 -78 l28 -27 424 0 424 0 28 27 c24 22 28 35 28 78 0 70 -31 100
-114 110 -81 9 -102 19 -121 54 -13 26 -15 98 -15 525 l0 495 86 90 c96 101
195 172 281 203 47 16 76 19 148 16 96 -5 137 -19 188 -67 44 -40 56 -72 67
-173 11 -103 12 -863 2 -1000 -9 -115 -20 -126 -135 -142 -111 -14 -137 -36
-137 -111 0 -43 4 -56 28 -78 l28 -27 439 0 439 0 28 27 c24 22 28 35 28 78 0
75 -30 100 -128 109 -40 4 -85 12 -100 17 -58 20 -56 5 -63 624 -8 672 -10
692 -102 808 -39 50 -155 131 -226 158 -287 107 -597 32 -851 -207 -41 -39
-75 -64 -77 -57 -12 36 -86 134 -129 172 -239 211 -696 178 -968 -70 -31 -28
-58 -50 -60 -48 -1 2 -10 38 -19 81 -8 42 -25 99 -38 127 -20 48 -23 51 -58
50 -20 0 -56 -7 -81 -14z"/>
<path d="M5285 2826 c-172 -33 -306 -101 -433 -220 -175 -166 -272 -366 -303
-627 -34 -298 46 -569 230 -770 121 -133 285 -234 456 -280 106 -29 334 -32
439 -6 262 66 472 231 541 426 15 43 15 43 -16 83 l-31 39 -66 -3 -67 -3 -35
-64 c-81 -149 -214 -240 -384 -263 -312 -42 -504 117 -572 472 -21 108 -36
324 -29 403 l7 67 577 0 576 0 29 36 c26 33 28 41 22 88 -17 146 -99 301 -225
427 -98 97 -182 145 -316 180 -103 26 -301 34 -400 15z m286 -225 c107 -50
163 -132 175 -253 l7 -68 -353 0 -353 0 6 36 c9 55 60 157 103 204 42 46 114
87 178 100 67 15 186 5 237 -19z"/>
<path d="M9385 2813 c-92 -28 -260 -58 -425 -76 l-115 -12 -3 -74 c-3 -68 -1
-76 23 -101 25 -26 35 -28 132 -35 82 -6 109 -11 124 -26 42 -42 44 -77 44
-664 0 -517 -1 -563 -17 -588 -27 -40 -51 -48 -156 -54 -86 -5 -100 -8 -124
-31 -24 -22 -28 -34 -28 -77 0 -43 4 -56 28 -78 l28 -27 470 0 470 0 32 33
c45 47 45 101 0 144 -29 27 -42 31 -109 37 -94 7 -123 17 -146 53 -17 25 -18
75 -21 788 l-3 760 -26 28 c-33 34 -67 34 -178 0z"/>
<path d="M10955 2830 c-295 -46 -568 -235 -709 -492 -160 -291 -154 -717 15
-1001 50 -84 161 -203 246 -263 84 -61 213 -119 319 -146 128 -32 370 -32 499
0 220 55 379 180 470 368 50 103 53 125 20 168 -27 35 -29 36 -95 36 l-68 0
-13 -37 c-40 -124 -125 -235 -213 -278 -149 -73 -392 -72 -528 2 -203 109
-313 408 -294 798 21 447 192 648 536 633 53 -3 108 -11 125 -19 33 -16 70
-83 80 -144 9 -60 54 -135 102 -169 76 -53 188 -49 253 10 105 95 90 248 -35
363 -59 54 -204 124 -315 151 -98 24 -301 34 -395 20z"/>
<path d="M12755 2829 c-207 -27 -354 -95 -468 -218 -76 -82 -102 -139 -102
-223 0 -52 5 -73 21 -95 49 -66 132 -94 217 -73 91 24 151 102 182 239 26 114
84 154 245 167 172 15 325 -46 368 -146 9 -22 17 -81 20 -161 l5 -126 -209
-83 c-458 -180 -733 -347 -839 -505 -196 -296 -30 -628 338 -675 174 -22 407
50 650 201 44 28 81 48 82 47 1 -2 11 -23 22 -48 49 -108 154 -181 290 -200
250 -35 439 102 472 341 7 57 7 60 -25 94 -30 33 -36 35 -93 35 -41 0 -63 -4
-65 -12 -2 -7 -9 -39 -16 -71 -18 -88 -55 -122 -128 -118 -44 2 -46 24 -53
616 -7 605 -9 626 -64 734 -48 95 -167 189 -302 238 -131 47 -363 65 -548 42z
m485 -1137 l0 -278 -112 -74 c-232 -154 -396 -184 -485 -88 -62 66 -75 207
-28 303 50 103 161 202 315 281 40 20 284 126 308 133 1 1 2 -124 2 -277z"/>
<path d="M16697 2824 c-166 -30 -307 -103 -436 -228 -186 -180 -284 -405 -298
-681 -15 -318 76 -558 288 -761 80 -76 137 -114 241 -164 138 -66 219 -83 393
-83 182 0 258 17 414 94 88 43 117 65 186 133 49 49 93 104 112 141 55 106 56
108 21 154 -30 41 -30 41 -96 41 l-67 0 -40 -72 c-78 -140 -193 -225 -342
-254 -343 -65 -550 102 -618 501 -17 102 -31 368 -21 408 l6 27 573 0 573 0
33 34 c31 32 33 38 27 83 -29 202 -161 412 -331 523 -158 103 -399 144 -618
104z m294 -226 c64 -29 118 -79 143 -132 19 -40 40 -162 30 -177 -5 -8 -704
-14 -704 -6 0 13 42 121 63 163 29 57 102 129 154 151 97 40 227 41 314 1z"/>
</g>
</svg>
