<?xml version="1.0" encoding="utf-8"?>
<!-- Generator: Adobe Illustrator 27.3.1, SVG Export Plug-In . SVG Version: 6.00 Build 0)  -->
<svg version="1.1" id="Layer_1" xmlns="http://www.w3.org/2000/svg" xmlns:xlink="http://www.w3.org/1999/xlink" x="0px" y="0px"
	 viewBox="0 0 700 700" style="enable-background:new 0 0 700 700;" xml:space="preserve">
<g>
	<path d="M532,369.7c-4.9-10.1-10-20.4-16.9-29.1c-13.5-16.7-28.1-32.4-42.4-48.3c-3.2-3.7-6.4-7.4-9.4-11.3c-3-3.4-5.8-7-8.6-10.7
		c-9.4-12.2-18.3-24.9-29.8-34.6c-18.4-15.5-17.8-35.4-21.4-55.2c0-0.2-0.1-0.4-0.1-0.5c-1.9-10.6-3.6-21.3-5.4-31.9
		c-4.1-23-4.5-48.1-14-70.1c-13-30.1-42.7-35.7-72.8-28.4c-11.6,2.8-22,8.1-30.3,16.8c-0.4,0.4-0.9,0.9-1.3,1.4
		c-1.4,1.6-2.8,3.2-4.4,5.2c0-0.1-0.1-0.2-0.2-0.2c-0.5,0.8-1,1.6-1.4,2.4c-0.1,0.6-0.4,1.3-0.9,2.2c-0.6,1.1-1.2,2.1-1.8,3.1
		c0,0.1-0.1,0.1-0.1,0.1c-4.3,8.3-6.5,17-5.9,26.2c0.1,1.9,0.3,3.9,0.6,5.9c0.5,3.2-1,7.7-3.1,10.5c-0.5,0.6-1,1.2-1.5,1.8
		c-2,2.4-4.5,4.6-6.8,6.6c-1.2,1.1-2.4,2.1-3.7,3.1c-4.9,4.4-4.7,7.4,1.1,10.1c0.1,0.1,0.3,0.2,0.4,0.3c0.8,0.4,1.6,0.8,2.4,1.1
		c3.9,1.2,3.7,3.9,1.9,6.5c-1.9,2.9-2,5.2-1.8,8.9c0.4,4.4,2.4,7,3.7,10.5c0.8,2,0.5,4.6,0,6.8c-1.8,7.9,0.5,11.7,8.5,13
		c2.6,0.4,5.2,0.5,8,0.6h3.5h0.2c1.6-0.3,10.3-1.2,14.2,4.6c1.9,1.8,3.6,4.1,4.3,6.4c1.6,4.9,2.2,9.9,2.4,15.1
		c0.8,3.4,0.9,6.8,0,10.1c-0.4,1.5-1,2.9-1.8,4.3c-1.8,3-3.7,5.9-5.6,8.9c-0.8,0.4-1.4,0.7-1.9,0.9c-12,18.8-26.2,35.6-43.7,50.5
		C227,310,216.7,325,228.4,350.7c2.1,4.6,2.3,9.4,1.1,13.9c-1.1,4.2-3.5,8.3-6.6,12.2c-9.4,11.9-20.8,20.5-31.1,31.3
		c-18.8,19.8-27.1,46-25.6,73v0.1c-0.5,19.5,5.2,38.5,16.2,54c6.5,11.4,14.8,22.1,24.9,31.8h0.1c4.2,4,7.6,8.8,9.9,14.1
		c2.1,4.9,4.1,9.9,6.4,14.9h110.9c26.6,0,53.2,0,79.9,0.1c0.4,0,0.9,0,1.2-0.1c1.3-0.3,2.2-0.9,3.1-2.3c0.4-0.8,0.8-1.5,1.2-2.3
		c6.5-11.6,11.3-24,13-37.4c2.1-16.3-0.1-32.2-5.8-47.5c-5-13.7-10.9-27.1-16.3-40.8c-3.1-8.1-5.9-16.3-6.2-24.9
		c0.4-0.2,0.9-0.4,1.3-0.5c38.8-16.4,77.5-32.7,116.3-49.2C532.1,387.1,537.1,380,532,369.7L532,369.7z M457.2,372.3
		c-15,10.6-29.8,21.4-45.3,31.1c5.1-15.6,10.5-31,15.4-46.6c2.2-6.7,4-13.5,5.5-20.4c8.9,8,17.5,15.7,26.1,23.4
		C463.8,364.5,461.5,369.2,457.2,372.3L457.2,372.3z"/>
</g>
</svg>
